<svg width="188" height="49" viewBox="0 0 188 49" fill="none" xmlns="http://www.w3.org/2000/svg">
<path d="M107.61 0.5L126.594 8.04339V12.6532L107.61 20.1966V14.3295L118.579 10.3483L107.61 6.36708V0.5Z" fill="#ECEEE6"/>
<path d="M121.646 48.5C117.166 48.5 114.66 46.332 114.66 41.6537V32.7916H112.268V28.1513H114.66V24.0055L121.456 21.555V28.1513H125.367V32.7916H121.456V41.0071C121.456 42.4525 122.178 43.0991 123.469 43.0991C124.228 43.0991 124.798 42.9849 125.405 42.7567V47.9295L125.375 47.9374C124.502 48.1656 123.223 48.5 121.646 48.5Z" fill="#ECEEE6"/>
<path fill-rule="evenodd" clip-rule="evenodd" d="M6.72054 48.5C3.15144 48.5 0 46.7504 0 42.5285C0 37.8502 3.94879 36.0246 10.5554 36.0246H12.4539V35.5681C12.4539 33.6664 11.9982 32.4113 9.834 32.4113C7.97352 32.4113 7.29007 33.5143 7.1382 34.7694H0.759383C1.06314 29.977 4.82208 27.6189 10.2517 27.6189C15.7192 27.6189 19.2124 29.8629 19.2124 35.1498V48.0436H12.6058V45.7235C11.6565 47.1688 9.90994 48.5 6.72054 48.5ZM9.07462 43.8978C11.011 43.8978 12.4539 42.7948 12.4539 41.0832V39.8661H10.6693C7.93555 39.8661 6.72054 40.3986 6.72054 42.0341C6.72054 43.1751 7.47992 43.8978 9.07462 43.8978Z" fill="#ECEEE6"/>
<path d="M32.4684 48.5C26.5452 48.5 22.0268 45.0388 22.0268 38.3447V38.0404C22.0268 31.4223 26.773 27.6189 32.6202 27.6189C37.4803 27.6189 41.9606 29.7488 42.3403 35.7964H35.9615C35.6578 33.9326 34.7465 32.9057 32.7721 32.9057C30.38 32.9057 28.9752 34.6173 28.9752 37.9643V38.2686C28.9752 41.7298 30.3041 43.5174 32.886 43.5174C34.7845 43.5174 36.1134 42.3764 36.3412 40.2084H42.4542C42.2644 45.229 38.8851 48.5 32.4684 48.5Z" fill="#ECEEE6"/>
<path d="M44.1631 38.3447C44.1631 45.0388 48.6815 48.5 54.6047 48.5C61.0214 48.5 64.4007 45.229 64.5905 40.2084H58.4775C58.2497 42.3764 56.9208 43.5174 55.0223 43.5174C52.4404 43.5174 51.1115 41.7298 51.1115 38.2686V37.9643C51.1115 34.6173 52.5163 32.9057 54.9084 32.9057C56.8828 32.9057 57.7941 33.9326 58.0978 35.7964H64.4766C64.0969 29.7488 59.6166 27.6189 54.7565 27.6189C48.9093 27.6189 44.1631 31.4223 44.1631 38.0404V38.3447Z" fill="#ECEEE6"/>
<path fill-rule="evenodd" clip-rule="evenodd" d="M77.0827 48.5C70.8557 48.5 66.2994 44.8487 66.2994 38.3447V38.0404C66.2994 31.6506 71.0456 27.6189 77.0447 27.6189C82.4743 27.6189 87.1445 30.7377 87.1445 37.8883V39.6759H73.1719C73.3617 42.3003 74.8805 43.8217 77.3105 43.8217C79.5507 43.8217 80.4999 42.7948 80.7657 41.4636H87.1445C86.537 45.9517 83.0818 48.5 77.0827 48.5ZM73.2478 35.8344H80.5379C80.424 33.4382 79.2469 32.107 77.0447 32.107C74.9944 32.107 73.5895 33.4382 73.2478 35.8344Z" fill="#ECEEE6"/>
<path d="M90.0551 28.1513V48.0436H96.8515V36.8994C96.8515 34.351 98.2184 33.1339 100.231 33.1339C102.205 33.1339 103.078 34.2369 103.078 36.481V48.0436H109.875V35.1117C109.875 30.0151 107.217 27.6189 103.382 27.6189C100.079 27.6189 97.9147 29.2924 96.8515 31.3463V28.1513H90.0551Z" fill="#ECEEE6"/>
<path d="M128.354 41.1212C128.354 46.1418 131.202 48.5 135.037 48.5C138.34 48.5 140.277 47.0166 141.34 44.9628V48.0436H148.136V28.1513H141.34V39.5998C141.34 42.1482 140.011 43.3653 137.961 43.3653C136.024 43.3653 135.151 42.2623 135.151 40.0182V28.1513H128.354V41.1212Z" fill="#ECEEE6"/>
<path d="M152.163 48.0436V28.1513H158.959V32.107C160.212 29.1403 162.301 27.8471 165.376 27.8851V34.2369C161.237 34.1228 158.959 35.416 158.959 38.6109V48.0436H152.163Z" fill="#ECEEE6"/>
<path fill-rule="evenodd" clip-rule="evenodd" d="M167.155 38.3447C167.155 44.8487 171.711 48.5 177.938 48.5C183.937 48.5 187.393 45.9517 188 41.4636H181.621C181.355 42.7948 180.406 43.8217 178.166 43.8217C175.736 43.8217 174.217 42.3003 174.027 39.6759H188V37.8883C188 30.7377 183.33 27.6189 177.9 27.6189C171.901 27.6189 167.155 31.6506 167.155 38.0404V38.3447ZM181.393 35.8344H174.103C174.445 33.4382 175.85 32.107 177.9 32.107C180.102 32.107 181.279 33.4382 181.393 35.8344Z" fill="#ECEEE6"/>
</svg>
