<svg width="248" height="55" viewBox="0 0 248 55" fill="none" xmlns="http://www.w3.org/2000/svg">
<path fill-rule="evenodd" clip-rule="evenodd" d="M0 14.0104V40.9896L23.2325 54.5L46.465 40.9896V14.0104L23.2325 0.5L0 14.0104ZM40.0988 17.7216V37.4452L23.1912 47.2444L6.28353 37.2784V17.7216L23.1912 7.92239L40.0988 17.7216Z" fill="#ECEEE6"/>
<path fill-rule="evenodd" clip-rule="evenodd" d="M72.2192 12.5093H62.0085V42.5324H72.3846C81.7685 42.5324 87.7627 36.6112 87.7627 27.5208C87.804 18.5973 81.4378 12.5093 72.2192 12.5093ZM72.0539 37.4869H68.2093V17.7633H72.3846C77.924 17.7633 81.7685 21.9749 81.7685 27.7293C81.7685 33.4421 77.7587 37.4869 72.0539 37.4869Z" fill="#ECEEE6"/>
<path d="M203.181 18.4305C205.041 18.4305 206.364 16.8876 206.364 15.2197C206.364 13.51 204.876 12.0089 203.181 12.0089C201.321 12.0089 199.998 13.5517 199.998 15.2197C199.998 17.0961 201.528 18.4305 203.181 18.4305Z" fill="#ECEEE6"/>
<path d="M200.535 21.9332H205.868V42.5324H200.535V21.9332Z" fill="#ECEEE6"/>
<path d="M121.909 29.8977C119.552 29.0637 118.891 28.5633 118.891 27.5208C118.891 26.6869 119.552 26.0197 120.917 26.0197C122.942 26.0197 124.43 27.1872 125.753 28.3965L128.771 25.0189C126.745 22.8089 123.934 21.6413 120.917 21.6413C116.576 21.6413 113.558 24.1849 113.558 27.7293C113.558 31.7741 116.741 33.4838 119.759 34.4845C119.924 34.5679 120.09 34.6096 120.255 34.6513C120.42 34.693 120.586 34.7347 120.751 34.8181C122.405 35.3185 123.438 35.6521 123.438 36.6946C123.438 37.3618 123.108 38.1957 120.917 38.1957C118.891 38.1957 116.907 37.195 115.915 35.6521L112.731 39.0297C114.922 41.5733 117.568 42.7409 120.917 42.7409C125.753 42.7409 128.771 40.3641 128.771 36.4861C128.936 32.7332 126.249 31.5656 121.909 29.8977Z" fill="#ECEEE6"/>
<path d="M238.113 27.5208C238.113 28.5633 238.774 29.0637 241.13 29.8977C245.512 31.5656 248.158 32.7332 247.993 36.4861C247.993 40.3641 244.975 42.7409 240.138 42.7409C236.79 42.7409 234.144 41.5733 231.953 39.0297L235.136 35.6521C236.128 37.195 238.113 38.1957 240.138 38.1957C242.329 38.1957 242.66 37.3618 242.66 36.6946C242.66 35.6521 241.627 35.3185 239.973 34.8181C239.808 34.7347 239.642 34.693 239.477 34.6513C239.312 34.6096 239.146 34.5679 238.981 34.4845C235.963 33.4838 232.78 31.7741 232.78 27.7293C232.78 24.1849 235.798 21.6413 240.138 21.6413C243.156 21.6413 245.967 22.8089 247.993 25.0189L244.975 28.3965C243.652 27.1872 242.164 26.0197 240.138 26.0197C238.774 26.0197 238.113 26.6869 238.113 27.5208Z" fill="#ECEEE6"/>
<path d="M138.444 15.2197C138.444 16.8876 137.121 18.4305 135.261 18.4305C133.608 18.4305 132.078 17.0961 132.078 15.2197C132.078 13.3432 133.401 12.0089 135.261 12.0089C136.956 12.0089 138.444 13.51 138.444 15.2197Z" fill="#ECEEE6"/>
<path d="M132.119 50.4552C135.633 50.4552 137.99 48.0784 137.99 43.1996V21.9332H132.615V43.0328C132.615 44.9093 131.789 45.91 130.59 45.91C129.928 45.91 129.432 45.7432 128.73 45.4096L127.903 49.9548C129.267 50.2884 130.259 50.4552 132.119 50.4552Z" fill="#ECEEE6"/>
<path fill-rule="evenodd" clip-rule="evenodd" d="M149.647 21.6413C151.838 21.6413 153.698 22.1417 155.187 23.1425C157.212 24.4768 158.204 26.3533 158.204 28.8969V42.4073H153.202V40.5309H153.037C151.714 41.7401 150.226 42.7409 147.87 42.7409C144.025 42.7409 141.173 40.0305 141.173 36.3193C141.173 32.6081 144.356 29.7309 148.696 29.7309C150.813 29.7309 152.321 30.2646 152.924 30.4781C153.075 30.5315 153.169 30.5648 153.202 30.5648V29.2305C153.202 27.8544 152.5 26.8537 151.177 26.3533C150.639 26.1865 149.978 26.0197 149.316 26.0197C148.82 26.0197 148.49 26.0197 147.994 26.1865C146.795 26.5201 145.968 27.2289 145.141 28.3965C144.868 28.1211 144.032 27.2267 143.279 26.4225L143.279 26.422C142.665 25.7653 142.107 25.1688 141.958 25.0189C143.612 22.8089 146.299 21.6413 149.647 21.6413ZM148.49 38.4876C150.97 38.4876 153.161 36.778 153.161 35.7772V34.2343C153.161 34.2343 151.011 33.5672 148.986 33.5672C146.299 33.5672 145.803 35.2768 145.803 36.1108C145.803 37.4869 147.001 38.4876 148.49 38.4876Z" fill="#ECEEE6"/>
<path d="M168.043 24.31L167.878 21.9332H162.545V42.5324H167.878V33.2336C167.878 29.5224 169.738 26.9788 174.244 26.9788V21.5996C171.557 21.5996 169.407 22.4753 168.043 24.31Z" fill="#ECEEE6"/>
<path fill-rule="evenodd" clip-rule="evenodd" d="M191.152 40.6977H190.986C188.63 42.5324 186.646 42.866 185.488 42.9077C182.966 42.9077 180.486 41.907 178.626 40.0305C177.262 38.6961 175.608 36.1525 175.608 32.2745C175.608 27.0205 178.957 21.6413 185.488 21.6413C187.142 21.6413 189.663 22.3502 190.655 23.6846H190.821V12.551H196.154V42.5741H191.152V40.6977ZM180.61 32.2328C180.61 35.4436 182.925 37.9873 185.777 37.9873C188.63 37.9873 190.986 35.4436 190.945 32.2328C190.945 29.5224 188.961 26.4784 185.777 26.4784C182.966 26.4784 180.61 29.022 180.61 32.2328Z" fill="#ECEEE6"/>
<path d="M215.748 23.6429H215.583V21.9749H210.25V42.5324H215.583V31.8992C215.583 27.1873 218.435 26.5201 220.254 26.5201C223.272 26.5201 224.429 29.0637 224.429 31.3988V42.5324H229.762V31.3988C229.762 25.3108 226.414 21.5996 221.081 21.5996C217.236 21.5996 215.748 23.6429 215.748 23.6429Z" fill="#ECEEE6"/>
<path fill-rule="evenodd" clip-rule="evenodd" d="M100.66 21.5996C106.531 21.5996 110.706 25.978 110.706 32.066V33.9425H96.3198C96.9813 36.6529 98.9655 38.154 101.653 38.154C103.802 38.154 105.662 36.9448 106.655 35.7772C107.151 36.2777 109.507 38.6544 109.838 39.1548C107.853 41.5317 104.836 42.866 101.157 42.866C94.9557 42.866 90.6151 38.4876 90.6151 32.2328C90.6151 25.978 94.7903 21.5996 100.66 21.5996ZM100.826 26.1865C98.5108 26.1865 96.8159 27.5208 96.1545 30.0645H105.332C104.836 27.5208 103.141 26.1865 100.826 26.1865Z" fill="#ECEEE6"/>
</svg>
