<svg width="133" height="57" viewBox="0 0 133 57" fill="none" xmlns="http://www.w3.org/2000/svg">
<path fill-rule="evenodd" clip-rule="evenodd" d="M0 0H19.7568V5.97143H6.18091V50.92H19.7568L19.7017 56.9457L0 57V0ZM113.243 0H133V57L113.298 56.9457L113.243 50.92H126.819V5.97143H113.243V0ZM22.9466 10.2166C23.2226 10.26 23.6751 10.3794 23.951 10.4989C24.227 10.6183 24.6464 10.9114 24.8892 11.1503C25.132 11.3891 25.4521 11.8234 25.5956 12.1166C25.7612 12.4423 25.8826 12.92 25.9046 13.3543C25.9488 13.908 25.9046 14.2011 25.717 14.7114C25.5404 15.1891 25.2976 15.5257 24.8451 15.9709C24.3925 16.4051 24.0614 16.6223 23.6199 16.7743C23.1784 16.9154 22.8032 16.948 22.2402 16.9154C21.7105 16.8829 21.291 16.7743 20.9158 16.5897C20.6178 16.4377 20.1652 16.1011 19.9334 15.8406C19.6906 15.58 19.3926 15.1457 19.2712 14.8743C19.1167 14.5269 19.0505 14.1577 19.0505 13.5714C19.0505 12.996 19.1167 12.616 19.2712 12.2686C19.3926 11.9971 19.7127 11.5411 19.9886 11.2589C20.2535 10.9657 20.6729 10.64 20.9158 10.5206C21.1586 10.412 21.6001 10.2709 21.8981 10.2274C22.1961 10.184 22.6597 10.1731 22.9466 10.2166ZM58.7187 13.0286V21.1714L64.0718 21.2257V22.3114L58.7187 22.3657V30.4326C58.7187 35.5571 58.7628 38.6623 58.8401 38.9771C58.8953 39.2486 59.0608 39.6177 59.1933 39.8131C59.3257 40.0086 59.6348 40.2691 59.8776 40.4103C60.2308 40.5949 60.4957 40.6491 61.1469 40.6383C61.6767 40.6383 62.1403 40.5731 62.4162 40.4537C62.659 40.356 63.0232 40.1171 63.2219 39.9217C63.4206 39.7263 63.6855 39.3354 63.8069 39.0314C63.9835 38.6297 64.0497 38.2171 64.0718 37.4571C64.0939 36.784 64.1822 36.176 64.3256 35.72C64.4581 35.3291 64.8002 34.6777 65.0983 34.2543C65.3963 33.8309 65.9261 33.2663 66.2903 32.9731C66.6435 32.6909 67.3609 32.2457 67.8797 31.9851C68.3984 31.7246 69.2152 31.388 69.7008 31.236C70.1865 31.084 71.2019 30.856 71.9635 30.7257C72.7251 30.6063 74.0716 30.4651 76.5992 30.3457V27.6314C76.5992 26.1114 76.544 24.6349 76.4778 24.2657C76.4115 23.9074 76.246 23.3971 76.1025 23.1257C75.959 22.8543 75.7603 22.5611 75.65 22.4634C75.5285 22.3657 75.2195 22.1703 74.9436 22.0291C74.5683 21.8446 74.2041 21.7686 73.4535 21.736C72.9127 21.7143 72.1842 21.7469 71.8531 21.812C71.522 21.8771 70.9481 22.0726 70.5838 22.2354C70.2196 22.4091 69.745 22.7131 69.5132 22.9194C69.2924 23.1257 69.0827 23.4189 69.0496 23.5926C68.9944 23.8206 69.0938 24.0594 69.4801 24.6783C69.745 25.1017 69.9988 25.6229 70.032 25.8183C70.0651 26.0029 70.043 26.3611 69.9768 26.6C69.9216 26.8389 69.7008 27.208 69.5132 27.4251C69.3145 27.6423 68.9613 27.9137 68.7406 28.0223C68.4867 28.1417 68.0894 28.2286 67.7472 28.2286C67.3609 28.2286 66.9967 28.1526 66.6656 27.9897C66.3896 27.8486 66.0585 27.5663 65.915 27.36C65.7715 27.1537 65.606 26.7846 65.5397 26.5457C65.4846 26.3069 65.4625 25.8726 65.4956 25.5686C65.5287 25.2754 65.6943 24.7543 65.8598 24.4286C66.0364 24.0703 66.4669 23.5274 66.9305 23.0714C67.4713 22.5503 67.99 22.1703 68.5971 21.8663C69.0827 21.6166 69.8002 21.3126 70.1975 21.1931C70.5949 21.0737 71.2129 20.9 71.5772 20.824C71.9414 20.748 72.9458 20.6937 73.8398 20.6937C75.1312 20.6937 75.6279 20.7371 76.4336 20.9326C76.9855 21.0737 77.8243 21.3669 78.31 21.5949C78.7956 21.8229 79.4137 22.2029 79.6786 22.4309C79.9435 22.6697 80.2967 23.0497 80.4622 23.2886C80.6388 23.5274 80.8817 24.0377 81.29 25.1343L81.3452 32.5714C81.3894 38.228 81.4335 40.0629 81.5439 40.2583C81.6101 40.3886 81.7867 40.5731 81.9302 40.66C82.0627 40.7469 82.3276 40.8229 82.5042 40.8229C82.6918 40.8229 82.9677 40.736 83.1333 40.6274C83.2878 40.5297 83.5748 40.3343 84.1046 39.9543L84.6785 40.66L84.2039 41.0834C83.939 41.3114 83.4202 41.648 83.056 41.8109C82.6918 41.9846 82.0958 42.18 81.7315 42.2451C81.3673 42.3103 80.7934 42.332 80.4622 42.2994C80.1311 42.2669 79.5572 42.1366 79.1929 42.0063C78.8287 41.8869 78.31 41.6263 78.0561 41.4417C77.7912 41.2463 77.427 40.8771 77.2504 40.6057C77.0627 40.3343 76.853 39.8783 76.7537 39.5743C76.6654 39.2811 76.5992 38.9337 76.5992 38.8143C76.5992 38.6949 76.5661 38.5646 76.5219 38.5211C76.4778 38.4777 76.2018 38.7709 75.9259 39.1726C75.65 39.5743 75.1864 40.1063 74.8994 40.3669C74.6235 40.6166 74.1268 40.9966 73.8178 41.2029C73.4977 41.4091 72.8575 41.7131 72.405 41.8651C71.9524 42.0171 71.1578 42.2017 70.639 42.256C69.9768 42.3429 69.458 42.3429 68.873 42.256C68.4205 42.1909 67.7472 42.0389 67.383 41.9086C67.0188 41.7891 66.4779 41.5286 66.1799 41.3331C65.8819 41.1377 65.3963 40.7143 65.0983 40.3886C64.8002 40.0629 64.5685 39.8566 64.5685 39.9326C64.5685 39.9977 64.3036 40.3451 63.9724 40.6926C63.6524 41.0291 63.1446 41.4417 62.8466 41.6046C62.5486 41.7566 61.9857 41.9737 61.5884 42.0823C61.1138 42.2126 60.4736 42.2777 59.6568 42.2777C58.8401 42.2777 58.211 42.2126 57.7253 42.0823C57.328 41.9846 56.743 41.7674 56.4119 41.6046C56.0807 41.4417 55.562 41.04 55.2529 40.7143C54.8887 40.3343 54.5907 39.8891 54.4251 39.4657C54.2927 39.1074 54.1271 38.5429 54.072 38.2171C54.0168 37.8914 53.9726 34.1891 53.9726 22.3657L50.7166 22.3114L50.6945 21.964C50.6614 21.6274 50.7056 21.584 51.4671 21.1823C51.8976 20.9543 52.6592 20.4549 53.1338 20.0749C53.6194 19.6949 54.3589 18.9891 54.7783 18.5114C55.1978 18.0337 55.7938 17.3063 56.0918 16.8829C56.4008 16.4703 56.8644 15.6777 57.1293 15.1457C57.3942 14.6137 57.6701 13.908 57.7363 13.604C57.8688 13.0286 57.8688 13.0286 58.7187 13.0286ZM73.4535 31.6486C72.9679 31.7463 72.1953 32.0069 71.7427 32.2131C71.2902 32.4194 70.6942 32.7669 70.4293 32.984C70.1534 33.2011 69.7781 33.6354 69.5794 33.9286C69.3808 34.2326 69.1379 34.7646 69.0276 35.1229C68.8951 35.5897 68.862 36.0457 68.8841 36.7514C68.9282 37.5331 68.9944 37.8589 69.2373 38.3583C69.447 38.8034 69.6898 39.0857 70.0651 39.3463C70.352 39.5526 70.7825 39.7806 71.0253 39.8457C71.2681 39.9217 71.82 39.9543 72.2394 39.9326C72.7692 39.9 73.1997 39.8023 73.6191 39.6177C73.9502 39.4657 74.48 39.1183 74.778 38.8469C75.0981 38.5646 75.4954 38.0434 75.7383 37.6091C75.97 37.1966 76.2239 36.5234 76.3232 36.1C76.4226 35.644 76.5219 34.5366 76.555 33.3097L76.6102 31.2686C76.1356 31.2903 75.6168 31.3337 75.1643 31.3771C74.7118 31.4206 73.9392 31.54 73.4535 31.6486ZM111.036 13.0286V21.28H116.444L116.389 22.3114L111.036 22.3657L111.091 39.0423L111.378 39.5743C111.577 39.9651 111.786 40.1931 112.15 40.3886C112.548 40.6057 112.791 40.66 113.464 40.6491C114.126 40.6491 114.402 40.5949 114.844 40.3777C115.175 40.2149 115.55 39.9109 115.76 39.6177C115.969 39.3571 116.212 38.8577 116.499 37.8914H117.029C117.415 37.8914 117.548 37.9349 117.548 38.0543C117.548 38.1411 117.459 38.4994 117.349 38.8469C117.239 39.1834 116.985 39.7263 116.775 40.052C116.565 40.3777 116.168 40.8337 115.892 41.0617C115.616 41.3006 115.153 41.6046 114.844 41.7349C114.546 41.876 114.016 42.0606 113.685 42.1366C113.342 42.2234 112.548 42.2886 111.863 42.2777C110.925 42.2777 110.462 42.2234 109.822 42.028C109.369 41.8869 108.85 41.7023 108.663 41.6046C108.475 41.5177 108.067 41.192 107.736 40.888C107.415 40.584 107.018 40.0954 106.875 39.7914C106.72 39.4983 106.521 38.9337 106.444 38.5429C106.323 37.9891 106.29 36.1977 106.29 22.3657L103.034 22.3114L103.012 21.964C102.978 21.6274 103.023 21.584 103.729 21.2149C104.137 20.9977 104.766 20.596 105.131 20.3137C105.495 20.0423 106.135 19.4777 106.555 19.0543C106.974 18.6417 107.68 17.8166 108.122 17.2411C108.574 16.6549 109.159 15.7211 109.435 15.1783C109.7 14.6246 109.987 13.908 110.053 13.604C110.186 13.0286 110.186 13.0286 111.036 13.0286ZM42.549 20.6829C43.156 20.7046 43.9507 20.8023 44.3149 20.9C44.6792 20.9977 45.3524 21.2583 45.805 21.4754C46.3679 21.7469 46.8646 22.1051 47.3612 22.5829C47.8469 23.0606 48.2001 23.5166 48.4319 23.9943C48.6195 24.3851 48.8402 25.08 48.9396 25.5469C49.0941 26.2634 49.1162 27.436 49.1162 40.6057L52.4826 40.66L52.5378 41.6914H41.1693V40.6057H44.3701V34.0154C44.3701 30.3783 44.3149 26.7086 44.2598 25.84C44.1715 24.4503 44.1273 24.2006 43.8514 23.6794C43.6748 23.332 43.3437 22.9303 43.0788 22.724C42.8139 22.5286 42.3944 22.3114 42.1406 22.2463C41.8757 22.1811 41.2907 22.1486 40.8382 22.1703C40.1649 22.2029 39.8448 22.2897 39.1274 22.6263C38.5424 22.8977 38.0237 23.2451 37.6042 23.6577C37.24 24.0051 36.7985 24.5697 36.5888 24.9714C36.3901 25.3623 36.1142 26.0463 35.9928 26.4914C35.8714 26.9366 35.7168 27.7834 35.6506 28.3697C35.5954 28.956 35.5402 31.8657 35.5402 40.6057H38.8515V41.6914H16.9975V40.6057H20.4191V22.3657L17.0527 22.3114V21.2257H25.2203L25.2755 40.6057H30.6838V22.3657L27.4278 22.3114V21.2257H35.4851L35.5402 23.9943L36.4563 23.104C36.9641 22.6046 37.6484 22.04 37.9795 21.8554C38.3106 21.66 38.8956 21.3669 39.2929 21.2149C39.6903 21.052 40.3305 20.8566 40.7278 20.7806C41.1693 20.6937 41.8646 20.6503 42.549 20.6829ZM95.6386 20.6829C96.5105 20.7046 97.2611 20.8023 97.8461 20.9543C98.3317 21.0737 99.1043 21.356 99.5568 21.584C100.042 21.8229 100.672 22.2571 101.091 22.6371C101.477 22.9954 101.941 23.5057 102.129 23.7771C102.316 24.0486 102.559 24.5371 102.669 24.8629C102.78 25.1886 102.868 25.7097 102.868 26.0029C102.868 26.3069 102.791 26.7954 102.68 27.0886C102.57 27.4143 102.316 27.816 102.051 28.0766C101.797 28.3154 101.4 28.576 101.157 28.652C100.914 28.7389 100.44 28.7823 100.087 28.7606C99.6231 28.728 99.3471 28.6411 98.9939 28.3914C98.729 28.2069 98.409 27.8486 98.2655 27.5771C98.0999 27.2731 97.9785 26.8171 97.9344 26.3829C97.8902 25.8291 97.9233 25.5469 98.111 25.08C98.2324 24.7543 98.5083 24.2766 98.729 24.0269C98.9388 23.7663 99.1154 23.4731 99.1154 23.3754C99.1264 23.2669 99.0271 23.0606 98.9167 22.9086C98.8063 22.7566 98.3979 22.4743 98.0006 22.2789C97.6143 22.0834 97.0183 21.8771 96.6871 21.812C96.356 21.7469 95.5393 21.7034 94.866 21.7251C93.7402 21.7686 93.5856 21.8011 92.8241 22.1703C92.2832 22.42 91.8528 22.724 91.5769 23.028C91.334 23.2886 91.036 23.7229 90.8925 23.9943C90.749 24.2657 90.5614 24.7543 90.4621 25.08C90.3738 25.4057 90.2082 26.2851 90.0978 27.0343C89.9433 28.12 89.9102 29.2274 89.8992 32.5171C89.8992 36.1543 89.9212 36.7297 90.0978 37.4029C90.2082 37.8263 90.4841 38.4994 90.7049 38.912C90.9256 39.3246 91.312 39.8349 91.5548 40.0411C91.7976 40.2583 92.3164 40.5731 92.7137 40.7577C93.3207 41.0291 93.5967 41.0834 94.5349 41.1269C95.2854 41.1594 95.9035 41.116 96.4664 40.9966C96.9189 40.8989 97.6474 40.6491 98.0668 40.4429C98.4973 40.2366 99.0933 39.8674 99.4134 39.6069C99.7224 39.3463 100.241 38.8251 100.561 38.4343C100.87 38.0434 101.29 37.4137 101.488 37.0229C101.687 36.632 101.941 36.0349 102.261 35.0686H102.901C103.243 35.0686 103.53 35.1011 103.53 35.1554C103.53 35.1989 103.42 35.568 103.299 35.9914C103.177 36.4149 102.868 37.1423 102.625 37.62C102.382 38.0977 101.974 38.76 101.709 39.0857C101.455 39.4114 101.014 39.8891 100.727 40.1497C100.451 40.3994 99.9321 40.7794 99.59 41.0074C99.2368 41.2246 98.729 41.496 98.4531 41.6046C98.1772 41.724 97.537 41.9194 97.0183 42.0497C96.2898 42.2234 95.749 42.2777 94.6452 42.2669C93.4532 42.2669 93.0227 42.2126 92.1066 41.9737C91.4996 41.8109 90.6608 41.5177 90.2303 41.3223C89.8109 41.116 89.0603 40.66 88.5747 40.3126C88.089 39.9543 87.4158 39.3463 87.0736 38.9663C86.7315 38.5863 86.29 38.0326 86.0913 37.7286C85.8816 37.4354 85.5505 36.8491 85.3518 36.4257C85.1641 36.0023 84.8661 35.2314 84.7006 34.6886C84.4688 33.896 84.4026 33.4183 84.3584 32.1371C84.3253 31.1491 84.3474 30.2589 84.4357 29.7486C84.5129 29.3034 84.6895 28.5651 84.8441 28.12C84.9876 27.6749 85.2856 26.9691 85.5063 26.5457C85.716 26.1223 86.1023 25.4926 86.3672 25.1343C86.6211 24.776 87.1288 24.1897 87.482 23.8423C87.8462 23.484 88.4312 22.9846 88.7954 22.7131C89.1597 22.4526 89.8329 22.0509 90.2855 21.8229C90.738 21.5949 91.5327 21.28 92.0515 21.128C92.5702 20.9651 93.2876 20.7914 93.6519 20.7371C94.0161 20.6829 94.9101 20.6611 95.6386 20.6829Z" fill="#ECEEE6"/>
</svg>
