<svg width="65" height="49" viewBox="0 0 65 49" fill="none" xmlns="http://www.w3.org/2000/svg">
<path d="M9.04088 0.6728V37.4024C9.04088 37.4984 8.96386 37.5752 8.86757 37.5752H0.173308C0.0770256 37.5752 0 37.4984 0 37.4024V0.6728C0 0.5768 0.0770256 0.5 0.173308 0.5H8.86757C8.96386 0.5 9.04088 0.5768 9.04088 0.6728ZM64.7208 29.1848H51.3183C51.1835 29.1848 51.0969 29.0312 51.1739 28.916C52.2137 27.3992 55.7088 26.0744 58.6358 24.2696C60.754 22.9544 62.9684 20.8616 64.1431 18.4232C64.74 17.1848 65 15.6776 65 14.0072C65 12.692 64.7593 11.3768 64.2779 10.0808C63.7868 8.7656 63.0358 7.5752 62.0345 6.548C61.0428 5.5208 59.7815 4.6856 58.2988 4.052C56.8064 3.4184 55.0348 3.1016 53.0321 3.1016C51.0198 3.1016 49.2097 3.4568 47.6692 4.1672C46.1287 4.8776 44.8097 5.8376 43.7602 7.0376C42.7203 8.2184 41.9212 9.5816 41.4013 11.0792C41.0258 12.1448 40.7851 13.2488 40.6792 14.3816C40.6695 14.4872 40.7562 14.5736 40.8525 14.5736H49.3734C49.4601 14.5736 49.5467 14.5064 49.5467 14.4104C49.6334 12.7208 51.145 11.5016 53.061 11.5016C55.497 11.5016 56.1806 13.2584 56.1806 14.1128C56.1806 15.2264 55.3333 16.0424 54.5823 16.6568C54.3512 16.8392 54.0912 17.0216 53.812 17.2232C52.9936 17.78 51.8671 18.452 50.4614 19.2104C49.2097 19.8632 47.9773 20.612 46.7931 21.428C45.5607 22.2824 44.4534 23.2712 43.481 24.3848C42.4796 25.5272 41.6805 26.8616 41.0932 28.3496C40.4962 29.8568 40.1977 31.5944 40.1977 33.5144V37.4216C40.1977 37.5176 40.2748 37.5944 40.3711 37.5944H64.7304C64.8267 37.5944 64.9037 37.5176 64.9037 37.4216V29.3768C64.8941 29.2616 64.8171 29.1848 64.7208 29.1848ZM38.0314 9.4664V35.1176C38.0314 45.1784 30.4347 48.5 24.6193 48.5C18.852 48.5 12.2567 44.8616 11.6309 37.7672C11.6212 37.6616 11.7079 37.5752 11.8042 37.5752H20.4407C20.5177 37.5752 20.5851 37.6232 20.6044 37.6904C20.9125 38.6792 21.9619 40.1192 24.6097 40.1192C27.373 40.1192 29.212 38.42 29.212 35.2136V34.8776C29.212 34.7432 29.0772 34.6664 28.952 34.724C28.6535 34.8776 28.3454 35.012 28.0373 35.1464C26.7086 35.684 25.2548 35.9528 23.7239 35.9528C22.0101 35.9528 20.3733 35.5976 18.8424 34.8968C17.3308 34.2056 15.9924 33.236 14.8563 32.0168C13.7298 30.8072 12.8248 29.3672 12.17 27.7256C11.5153 26.084 11.188 24.2984 11.188 22.3976C11.188 20.5064 11.5153 18.7112 12.17 17.06C12.8248 15.4088 13.7298 13.9496 14.8563 12.74C15.9924 11.5208 17.3308 10.5512 18.8424 9.86C20.3733 9.1592 22.0101 8.804 23.7239 8.804C25.3607 8.804 26.8819 9.1016 28.2491 9.6872C28.5861 9.8312 28.9135 9.9944 29.2312 10.1672C29.3468 10.2344 29.4912 10.148 29.4912 10.0136V9.476C29.4912 9.38 29.5682 9.3032 29.6645 9.3032H37.8485C37.9447 9.2936 38.0314 9.3704 38.0314 9.4664ZM29.2216 22.3688C29.2216 19.4984 27.1612 17.1656 24.6193 17.1656C22.0775 17.1656 20.017 19.4984 20.017 22.3688C20.017 25.2392 22.0775 27.572 24.6193 27.572C27.1612 27.572 29.2216 25.2488 29.2216 22.3688Z" fill="#ECEEE6"/>
</svg>
