<svg width="317" height="35" viewBox="0 0 317 35" fill="none" xmlns="http://www.w3.org/2000/svg">
<path d="M18.3779 0.5H15.4375V16.0217H0V18.9783H13.3583L1.16577 31.2373L3.245 33.3279L15.4375 21.0689V34.5H18.3779V18.9783H33.8154V16.0217H20.4572L27.6147 8.82518C33.0693 3.34086 41.9128 3.34085 47.3674 8.82517L54.5249 16.0217H41.1666V18.9783H56.6041V34.5H59.5446V21.0688L71.7371 33.3279L73.8163 31.2373L61.6238 18.9783H74.9821V16.0217H59.5446V0.5H56.6041V13.9311L49.4466 6.73459C42.8437 0.0956814 32.1384 0.0956891 25.5355 6.7346L18.3779 13.9312V0.5Z" fill="#ECEEE6"/>
<path d="M90.0711 30.3674V0.5H86.1607V33.9365H106.737V30.3674H90.0711Z" fill="#ECEEE6"/>
<path fill-rule="evenodd" clip-rule="evenodd" d="M119.542 34.5C122.925 34.5 125.718 33.3416 127.922 31.0249C130.094 28.7394 131.18 25.6713 131.18 21.8204C131.18 17.9696 130.094 14.9015 127.922 12.616C125.718 10.2993 122.925 9.14088 119.542 9.14088C116.159 9.14088 113.366 10.2993 111.163 12.616C108.99 14.9015 107.904 17.9696 107.904 21.8204C107.904 25.6713 108.99 28.7394 111.163 31.0249C113.366 33.3416 116.159 34.5 119.542 34.5ZM119.542 31.1188C117.184 31.1188 115.306 30.2891 113.909 28.6298C112.513 27.0018 111.814 24.732 111.814 21.8204C111.814 18.8775 112.513 16.5921 113.909 14.9641C115.306 13.3361 117.184 12.5221 119.542 12.5221C121.901 12.5221 123.779 13.3361 125.175 14.9641C126.572 16.5921 127.27 18.8775 127.27 21.8204C127.27 24.732 126.572 27.0018 125.175 28.6298C123.779 30.2891 121.901 31.1188 119.542 31.1188Z" fill="#ECEEE6"/>
<path d="M145.58 34.5C142.259 34.5 139.574 33.3416 137.526 31.0249C135.478 28.7081 134.454 25.64 134.454 21.8204C134.454 17.9383 135.478 14.8545 137.526 12.5691C139.512 10.2836 142.197 9.14088 145.58 9.14088C148.435 9.14088 150.778 9.92357 152.609 11.4889C154.44 13.0543 155.542 15.1989 155.914 17.9226H152.051C151.771 16.2007 151.026 14.8702 149.816 13.9309C148.637 12.9917 147.225 12.5221 145.58 12.5221C143.376 12.5221 141.623 13.3361 140.319 14.9641C139.016 16.5608 138.364 18.8462 138.364 21.8204C138.364 24.7633 139.016 27.0488 140.319 28.6768C141.654 30.3048 143.407 31.1188 145.58 31.1188C147.225 31.1188 148.652 30.6335 149.863 29.663C151.073 28.6924 151.818 27.3462 152.097 25.6243H155.914C155.511 28.3481 154.363 30.5083 152.47 32.105C150.607 33.7017 148.311 34.5 145.58 34.5Z" fill="#ECEEE6"/>
<path fill-rule="evenodd" clip-rule="evenodd" d="M170.368 34.5C173.751 34.5 176.544 33.3416 178.748 31.0249C180.92 28.7394 182.006 25.6713 182.006 21.8204C182.006 17.9696 180.92 14.9015 178.748 12.616C176.544 10.2993 173.751 9.14088 170.368 9.14088C166.985 9.14088 164.192 10.2993 161.989 12.616C159.816 14.9015 158.73 17.9696 158.73 21.8204C158.73 25.6713 159.816 28.7394 161.989 31.0249C164.192 33.3416 166.985 34.5 170.368 34.5ZM170.368 31.1188C168.01 31.1188 166.132 30.2891 164.735 28.6298C163.339 27.0018 162.641 24.732 162.641 21.8204C162.641 18.8775 163.339 16.5921 164.735 14.9641C166.132 13.3361 168.01 12.5221 170.368 12.5221C172.727 12.5221 174.605 13.3361 176.001 14.9641C177.398 16.5921 178.096 18.8775 178.096 21.8204C178.096 24.732 177.398 27.0018 176.001 28.6298C174.605 30.2891 172.727 31.1188 170.368 31.1188Z" fill="#ECEEE6"/>
<path d="M211.722 9.14088C214.329 9.14088 216.346 9.90792 217.773 11.442C219.232 12.9448 219.961 14.9641 219.961 17.5V33.9365H216.237V17.8757C216.237 14.3066 214.561 12.5221 211.209 12.5221C209.44 12.5221 207.966 13.2422 206.787 14.6823C205.639 16.0912 205.065 18.0948 205.065 20.6934V33.9365H201.34V17.8757C201.34 14.3066 199.664 12.5221 196.313 12.5221C194.575 12.5221 193.116 13.2422 191.937 14.6823C190.757 16.0912 190.168 18.0948 190.168 20.6934V33.9365H186.443V9.70442H189.981V13.2735C191.564 10.5184 193.876 9.14088 196.918 9.14088C200.518 9.14088 202.985 10.6593 204.32 13.6961C205.996 10.6593 208.463 9.14088 211.722 9.14088Z" fill="#ECEEE6"/>
<path fill-rule="evenodd" clip-rule="evenodd" d="M236.015 34.5C239.398 34.5 242.191 33.3416 244.394 31.0249C246.567 28.7394 247.653 25.6713 247.653 21.8204C247.653 17.9696 246.567 14.9015 244.394 12.616C242.191 10.2993 239.398 9.14088 236.015 9.14088C232.632 9.14088 229.839 10.2993 227.635 12.616C225.463 14.9015 224.377 17.9696 224.377 21.8204C224.377 25.6713 225.463 28.7394 227.635 31.0249C229.839 33.3416 232.632 34.5 236.015 34.5ZM236.015 31.1188C233.656 31.1188 231.779 30.2891 230.382 28.6298C228.985 27.0018 228.287 24.732 228.287 21.8204C228.287 18.8775 228.985 16.5921 230.382 14.9641C231.779 13.3361 233.656 12.5221 236.015 12.5221C238.373 12.5221 240.251 13.3361 241.648 14.9641C243.044 16.5921 243.742 18.8775 243.742 21.8204C243.742 24.732 243.044 27.0018 241.648 28.6298C240.251 30.2891 238.373 31.1188 236.015 31.1188Z" fill="#ECEEE6"/>
<path d="M261.202 9.70442V12.9917H256.267V28.7238C256.267 30.1013 257.182 30.7901 259.014 30.7901H261.202V33.9365C260.177 34.0304 259.293 34.0773 258.548 34.0773C254.545 34.0773 252.543 32.4024 252.543 29.0525V12.9917H248.586V9.70442H252.543V2.84807H256.267V9.70442H261.202Z" fill="#ECEEE6"/>
<path d="M264.998 6.04144H268.955V1.43923H264.998V6.04144Z" fill="#ECEEE6"/>
<path d="M265.137 33.9365H268.862V9.70442H265.137V33.9365Z" fill="#ECEEE6"/>
<path d="M286.473 20.4586L290.43 9.70442H294.434L284.983 33.9365H281.073L271.669 9.70442H275.719L279.676 20.5055C281.632 25.7965 282.764 28.9273 283.075 29.8978C283.633 28.2385 284.766 25.0921 286.473 20.4586Z" fill="#ECEEE6"/>
<path fill-rule="evenodd" clip-rule="evenodd" d="M317 23.1354V21.8204C317 18.1888 316.022 15.1676 314.067 12.7569C312.112 10.3462 309.412 9.14088 305.967 9.14088C302.646 9.14088 299.977 10.2993 297.96 12.616C295.912 14.9328 294.887 18.0009 294.887 21.8204C294.887 25.7026 295.927 28.7864 298.007 31.0718C300.055 33.3573 302.739 34.5 306.06 34.5C308.76 34.5 310.995 33.7956 312.764 32.3867C314.533 30.9466 315.743 29.0055 316.395 26.5635H312.531C311.6 29.5691 309.474 31.0718 306.153 31.0718C303.95 31.0718 302.212 30.4144 300.939 29.0994C299.667 27.7532 298.938 25.7652 298.751 23.1354H317ZM301.172 14.4475C302.413 13.1952 304.012 12.5691 305.967 12.5691C307.984 12.5691 309.614 13.2422 310.855 14.5884C312.096 15.9033 312.81 17.6252 312.996 19.7541H298.844C299.155 17.4374 299.931 15.6685 301.172 14.4475Z" fill="#ECEEE6"/>
</svg>
