<svg width="348" height="39" viewBox="0 0 348 39" fill="none" xmlns="http://www.w3.org/2000/svg">
<path d="M26.4155 38.1813C26.7967 38.7183 27.3813 39 27.9743 39C28.3641 39 28.7622 38.8768 29.0926 38.6215L72.3841 5.91767V27.0013C72.3841 28.1017 73.2483 28.9996 74.3073 28.9996C75.3662 28.9996 76.2304 28.1017 76.2304 27.0013V1.99145C76.2304 1.24318 75.8237 0.556531 75.1799 0.213207C74.536 -0.121313 73.7651 -0.0596911 73.1805 0.380468L26.8391 35.3907C25.9834 36.0421 25.7886 37.2922 26.4155 38.1813Z" fill="#ECEEE6"/>
<path d="M0 27.0104C0 28.1108 0.864136 28.9999 1.92313 28.9999C2.98212 28.9999 3.83778 28.1108 3.83778 27.0104V5.93563L28.7791 24.9329C29.6348 25.5843 30.8378 25.3906 31.4647 24.5015C32.0916 23.6124 31.9052 22.3624 31.0496 21.7109L3.05836 0.389633C2.4738 -0.0593285 1.69438 -0.120951 1.05052 0.222373C0.406652 0.556894 0 1.25234 0 2.00061V27.0104Z" fill="#ECEEE6"/>
<path d="M48.2645 0.00194118H28.203C27.144 0.00194118 26.2799 0.899865 26.2799 2.00026C26.2799 3.10066 27.144 3.99858 28.203 3.99858H36.192V18.1981C36.192 19.2985 37.0562 20.1964 38.1151 20.1964C39.1741 20.1964 40.0383 19.2985 40.0383 18.1981V3.98978H48.2645C49.3235 3.98978 50.1876 3.09186 50.1876 1.99146C50.1876 0.891062 49.3235 0.00194118 48.2645 0.00194118Z" fill="#ECEEE6"/>
<path d="M272.944 28.1371C271.056 28.1371 269.412 27.7858 268.014 27.0832C266.617 26.3806 265.537 25.402 264.777 24.1474C264.017 22.8927 263.637 21.4373 263.637 19.7812H266.874C266.874 20.81 267.107 21.7635 267.573 22.6418C268.039 23.4949 268.713 24.185 269.596 24.7119C270.504 25.2138 271.62 25.4647 272.944 25.4647C274.097 25.4647 275.078 25.2765 275.887 24.9001C276.721 24.4987 277.346 23.9592 277.763 23.2816C278.205 22.6041 278.425 21.8388 278.425 20.9856C278.425 19.9568 278.205 19.1287 277.763 18.5014C277.346 17.849 276.77 17.322 276.034 16.9206C275.298 16.5191 274.44 16.1678 273.459 15.8667C272.503 15.5404 271.497 15.1891 270.442 14.8127C268.407 14.1101 266.911 13.2444 265.954 12.2156C264.998 11.1617 264.52 9.79414 264.52 8.11291C264.52 6.6826 264.838 5.42795 265.476 4.34895C266.138 3.26995 267.07 2.42934 268.272 1.8271C269.498 1.19978 270.945 0.886116 272.613 0.886116C274.256 0.886116 275.678 1.19978 276.88 1.8271C278.106 2.45443 279.063 3.32014 279.75 4.42423C280.436 5.50323 280.78 6.75788 280.78 8.18819H277.542C277.542 7.46049 277.358 6.74534 276.991 6.04273C276.623 5.34013 276.059 4.76299 275.298 4.31131C274.563 3.83454 273.631 3.59616 272.503 3.59616C271.571 3.57107 270.737 3.73417 270.001 4.08548C269.29 4.41169 268.726 4.88845 268.309 5.51578C267.916 6.1431 267.72 6.90844 267.72 7.81179C267.72 8.66495 267.892 9.35501 268.235 9.88196C268.603 10.4089 269.118 10.8606 269.78 11.237C270.467 11.5883 271.264 11.9145 272.171 12.2156C273.079 12.5167 274.084 12.8555 275.188 13.2319C276.439 13.6585 277.542 14.1854 278.499 14.8127C279.48 15.415 280.24 16.1929 280.78 17.1464C281.344 18.0999 281.626 19.3169 281.626 20.7974C281.626 22.0521 281.295 23.244 280.633 24.3732C279.995 25.4773 279.038 26.3806 277.763 27.0832C276.488 27.7858 274.881 28.1371 272.944 28.1371Z" fill="#ECEEE6"/>
<path fill-rule="evenodd" clip-rule="evenodd" d="M214.934 1.33779V27.6855H222.512C225.528 27.6855 228.018 27.1585 229.98 26.1046C231.942 25.0507 233.389 23.5451 234.321 21.5879C235.277 19.6306 235.755 17.297 235.755 14.5869C235.755 11.8267 235.277 9.46793 234.321 7.51067C233.389 5.52833 231.942 4.0102 229.98 2.95629C228.018 1.87729 225.528 1.33779 222.512 1.33779H214.934ZM222.438 25.0507H218.024V3.97256H222.438C224.94 3.97256 226.926 4.39914 228.398 5.2523C229.894 6.10546 230.961 7.32248 231.598 8.90334C232.236 10.4842 232.555 12.3787 232.555 14.5869C232.555 16.7449 232.236 18.6143 231.598 20.1952C230.961 21.751 229.894 22.9554 228.398 23.8086C226.926 24.6367 224.94 25.0507 222.438 25.0507Z" fill="#ECEEE6"/>
<path d="M242.1 27.6855V1.33779H258.029V3.93492H245.19V13.119H256.926V15.6785H245.19V25.0883H258.029V27.6855H242.1Z" fill="#ECEEE6"/>
<path d="M287.919 1.33779V27.6855H291.009V1.33779H287.919Z" fill="#ECEEE6"/>
<path d="M303.126 26.4434C304.941 27.5726 307.05 28.1371 309.454 28.1371C310.95 28.1371 312.237 27.9615 313.316 27.6102C314.396 27.2338 315.327 26.6943 316.112 25.9917C316.922 25.264 317.633 24.3857 318.246 23.3569L318.503 27.6855H321.336V13.6083H310.741V16.0925H318.172C317.976 18.928 317.179 21.1738 315.781 22.83C314.383 24.4861 312.311 25.3142 309.564 25.3142C307.798 25.3142 306.229 24.8876 304.855 24.0344C303.506 23.1813 302.452 21.9517 301.692 20.3458C300.931 18.7147 300.551 16.7825 300.551 14.5493C300.551 12.316 300.931 10.3964 301.692 8.79042C302.452 7.18446 303.531 5.95491 304.929 5.10174C306.351 4.22349 308.007 3.78436 309.895 3.78436C311.931 3.78436 313.586 4.24858 314.861 5.17702C316.137 6.10546 316.946 7.36012 317.289 8.94098H320.858C320.318 6.40658 319.08 4.43678 317.142 3.03157C315.205 1.60127 312.789 0.886116 309.895 0.886116C307.345 0.886116 305.125 1.46326 303.237 2.61753C301.373 3.77181 299.926 5.37777 298.896 7.43539C297.89 9.49302 297.387 11.8643 297.387 14.5493C297.387 17.2593 297.89 19.6306 298.896 21.6631C299.901 23.6957 301.311 25.2891 303.126 26.4434Z" fill="#ECEEE6"/>
<path d="M328.098 1.33779V27.6855H331.188V6.56968L344.91 27.6855H348V1.33779H344.91V22.4536L331.188 1.33779H328.098Z" fill="#ECEEE6"/>
<path d="M118.78 1.33779V27.6855H124.298V10.8606L130.662 23.9968H135.077L141.404 10.8606V27.6855H146.922V1.33779H140.337L132.906 17.184L125.401 1.33779H118.78Z" fill="#ECEEE6"/>
<path d="M159.666 27.6855V5.89217H152.198V1.33779H172.652V5.89217H165.184V27.6855H159.666Z" fill="#ECEEE6"/>
<path d="M177.927 27.6855V1.33779H184.549L192.053 17.184L199.484 1.33779H206.069V27.6855H200.551V10.8606L194.224 23.9968H189.809L183.445 10.8606V27.6855H177.927Z" fill="#ECEEE6"/>
</svg>
