<svg width="320" height="51" viewBox="0 0 320 51" fill="none" xmlns="http://www.w3.org/2000/svg">
<path d="M241.812 5.20032V1H246.213V5.20032H241.812Z" fill="#ECEEE6"/>
<path d="M112.352 1.50404H117.058L112.572 6.54442H110.913C109.965 6.54442 109.254 6.47721 109.237 6.37641C109.22 6.2924 109.914 5.14991 110.778 3.85622L112.352 1.50404Z" fill="#ECEEE6"/>
<path d="M67.1222 2.17609H72.2851L76.6015 12.4249C78.9713 18.0701 80.9518 22.6736 81.0026 22.6736C81.0534 22.6736 83.0339 18.0869 89.7371 2.2601H94.9676L95.0522 30.5702H90.8204V19.9518C90.8374 14.105 90.7696 9.38383 90.7019 9.45104C90.6342 9.53505 88.5522 14.3066 81.5951 30.4862H80.444L76.0091 20.1534C73.5546 14.4746 71.4726 9.70306 71.3879 9.56865C71.2694 9.40063 71.2017 12.5761 71.1848 30.5702H67.1222V2.17609Z" fill="#ECEEE6"/>
<path d="M162.423 2.17609L167.586 2.15929L171.902 12.3745C174.255 18.0029 176.219 22.6232 176.252 22.6736C176.286 22.724 176.337 22.724 176.388 22.6736C176.439 22.6232 178.402 18.0197 185.071 2.2601L190.353 2.17609V30.5702H186.121L186.036 9.31663L176.896 30.587L175.778 30.4862L171.343 20.1702C168.906 14.4914 166.824 9.82067 166.705 9.78706C166.536 9.75346 166.485 11.904 166.485 30.5702H162.423V2.17609Z" fill="#ECEEE6"/>
<path d="M126.198 3.85622H130.092V9.06461H135.508V12.5929H130.092L130.142 18.7757C130.176 24.1858 130.227 25.0258 130.481 25.5803C130.633 25.9163 130.938 26.3027 131.158 26.4035C131.361 26.5211 132.225 26.6555 134.577 26.7899L134.662 30.5702L132.428 30.5198C130.481 30.4694 130.058 30.419 129.262 30.0494C128.771 29.831 128.077 29.3437 127.739 28.9741C127.383 28.6045 126.926 27.8484 126.706 27.294C126.3 26.2859 126.283 26.2355 126.198 12.5929H122.982V9.06461H126.198V3.85622Z" fill="#ECEEE6"/>
<path fill-rule="evenodd" clip-rule="evenodd" d="M110.964 8.51017C111.472 8.54377 112.284 8.66138 112.741 8.76219C113.215 8.86299 114.078 9.16542 114.688 9.45104C115.45 9.80387 116.161 10.3247 116.99 11.148C117.819 11.9712 118.395 12.7273 118.818 13.5674C119.157 14.2226 119.58 15.3987 119.766 16.1715C119.952 16.9276 120.155 18.3221 120.359 20.9935H104.447L104.582 21.9176C104.65 22.4216 104.836 23.1945 104.972 23.6481C105.124 24.0849 105.513 24.841 105.818 25.3282C106.157 25.8491 106.732 26.4035 107.206 26.7059C107.646 26.9916 108.306 27.3108 108.679 27.4116C109.051 27.4956 109.931 27.5796 110.625 27.5796C111.421 27.5796 112.25 27.4788 112.826 27.2772C113.418 27.0756 114.062 26.6891 114.603 26.2019C115.077 25.7651 115.704 25.0258 116.55 23.6817L118.039 24.7906C118.852 25.3954 119.512 25.9667 119.512 26.0339C119.512 26.1179 119.174 26.6555 118.75 27.2268C118.327 27.798 117.532 28.6213 116.973 29.0581C116.414 29.5118 115.534 30.0662 115.026 30.3014C114.519 30.5366 113.571 30.8391 112.911 30.9903C112.267 31.1247 111.201 31.2423 110.541 31.2423C109.881 31.2423 108.763 31.0911 108.002 30.9063C107.257 30.7046 106.207 30.3182 105.649 30.0158C105.09 29.7134 104.21 29.0581 103.702 28.5541C103.177 28.05 102.466 27.1764 102.128 26.6219C101.789 26.0675 101.366 25.1602 101.18 24.6058C100.994 24.0513 100.74 23.0769 100.638 22.4216C100.503 21.6992 100.452 20.4055 100.52 19.0614C100.587 17.3308 100.689 16.5916 101.044 15.5331C101.281 14.7938 101.755 13.7354 102.077 13.1809C102.416 12.6265 103.093 11.7696 103.567 11.2824C104.058 10.7951 104.785 10.1735 105.209 9.90467C105.632 9.63585 106.427 9.24942 106.986 9.04781C107.545 8.86299 108.459 8.64458 109.017 8.56057C109.576 8.49337 110.456 8.45976 110.964 8.51017ZM106.698 13.4161C106.207 13.853 105.598 14.6258 105.344 15.1299C105.107 15.6339 104.819 16.3732 104.718 16.7932C104.616 17.2132 104.548 17.6501 104.532 17.7677C104.532 17.9189 105.818 17.9693 110.371 17.9693C113.588 17.9693 116.211 17.9525 116.211 17.9357C116.211 17.9021 116.127 17.4316 116.025 16.8772C115.924 16.3228 115.636 15.4491 115.365 14.9451C115.111 14.441 114.586 13.7354 114.197 13.3993C113.825 13.0465 113.215 12.6433 112.877 12.4921C112.504 12.3409 111.59 12.1896 110.71 12.156C109.66 12.1056 108.933 12.1728 108.391 12.3409C107.883 12.4921 107.24 12.9121 106.698 13.4161Z" fill="#ECEEE6"/>
<path fill-rule="evenodd" clip-rule="evenodd" d="M147.357 8.42616C147.493 8.40936 148.187 8.47656 148.881 8.56057C149.575 8.66138 150.608 8.8798 151.166 9.06461C151.725 9.24942 152.605 9.68626 153.113 10.0391C153.621 10.3919 154.298 11.064 154.602 11.5176C154.907 11.9712 155.33 12.8281 155.533 13.4329C155.872 14.4746 155.889 14.8442 155.99 30.5702H152.436V29.6462C152.436 29.1421 152.402 28.7221 152.351 28.7221C152.3 28.7221 151.877 29.0413 151.386 29.4446C150.895 29.831 150.1 30.3182 149.609 30.5366C149.118 30.7382 148.322 30.9903 147.831 31.0743C147.341 31.1751 146.443 31.2423 145.834 31.2423C145.225 31.2423 144.243 31.1415 143.633 31.0071C143.024 30.8895 142.212 30.6206 141.822 30.419C141.416 30.2342 140.756 29.747 140.316 29.3605C139.893 28.9573 139.351 28.2181 139.097 27.714C138.758 27.0084 138.64 26.4539 138.589 25.3618C138.521 24.2866 138.589 23.6817 138.826 22.9257C139.063 22.136 139.334 21.716 140.079 20.9767C140.587 20.4727 141.433 19.851 141.941 19.6158C142.449 19.3638 143.481 18.9774 144.226 18.7421L144.336 18.7098C145.1 18.4857 146.386 18.1085 147.273 17.8685C148.204 17.6165 149.423 17.2132 149.981 16.978C150.54 16.726 151.166 16.306 151.386 16.0203C151.64 15.7011 151.776 15.3147 151.776 14.9115C151.759 14.5586 151.657 14.0714 151.522 13.8194C151.386 13.5505 151.115 13.1809 150.895 12.9793C150.675 12.7777 150.184 12.4921 149.812 12.3409C149.423 12.1728 148.61 12.0552 147.865 12.0384C147.171 12.0216 146.223 12.1224 145.749 12.2569C145.14 12.4249 144.666 12.7273 144.057 13.3321C143.498 13.8866 143.075 14.5082 142.872 15.0795C142.686 15.5667 142.466 15.9531 142.364 15.9531C142.279 15.9363 141.518 15.6843 140.671 15.3819C139.199 14.861 139.148 14.8106 139.199 14.3402C139.215 14.0714 139.452 13.3993 139.723 12.8449C139.994 12.2905 140.468 11.5344 140.79 11.1648C141.111 10.7951 141.755 10.2407 142.212 9.93828C142.669 9.63585 143.464 9.23262 143.972 9.04781C144.48 8.84619 145.394 8.64458 146.003 8.56057C146.613 8.49337 147.222 8.42616 147.357 8.42616ZM150.641 19.935C150.184 20.1366 148.746 20.6071 147.442 21.0103C146.139 21.3967 144.734 21.884 144.311 22.0856C143.887 22.2872 143.346 22.6904 143.092 22.9929C142.838 23.2785 142.567 23.7993 142.516 24.1522C142.466 24.4882 142.449 25.0426 142.516 25.3618C142.567 25.6811 142.753 26.1347 142.923 26.3531C143.075 26.5715 143.397 26.8908 143.633 27.0588C143.87 27.2436 144.514 27.462 145.072 27.5628C145.631 27.6636 146.579 27.6972 147.188 27.6468C147.798 27.5796 148.627 27.4284 149.05 27.294C149.473 27.1596 150.15 26.7731 150.557 26.4203C150.963 26.0675 151.437 25.4963 151.623 25.1602C151.894 24.6058 151.928 24.169 151.894 21.8C151.86 19.767 151.792 19.1454 151.657 19.3302C151.555 19.4646 151.098 19.7334 150.641 19.935Z" fill="#ECEEE6"/>
<path d="M228.27 8.51017C228.879 8.54377 229.759 8.66138 230.216 8.76219C230.69 8.86299 231.52 9.14862 232.078 9.40063C232.722 9.70306 233.45 10.2407 234.059 10.8623C234.651 11.4672 235.244 12.3073 235.616 13.0969C235.955 13.7858 236.226 14.4578 236.226 14.5754C236.226 14.6762 235.786 14.8947 235.261 15.0459C234.818 15.1556 234.297 15.3103 233.964 15.409C233.889 15.4312 233.824 15.4505 233.771 15.4659C233.5 15.5499 233.145 15.6171 233.009 15.6171C232.874 15.6171 232.62 15.2979 232.468 14.9115C232.299 14.5082 231.909 13.8866 231.605 13.5169C231.283 13.1473 230.657 12.6601 230.2 12.4249C229.539 12.0888 229.065 11.988 227.847 11.9544C226.543 11.8872 226.205 11.9376 225.409 12.2737C224.901 12.4921 224.309 12.8785 224.106 13.1473C223.886 13.3993 223.666 13.853 223.598 14.1554C223.547 14.4746 223.615 14.9451 223.767 15.3315C223.97 15.7851 224.258 16.0539 224.851 16.3564C225.291 16.5748 226.679 17.0788 227.931 17.4652C229.184 17.8517 230.792 18.3557 231.486 18.5909C232.18 18.8261 233.213 19.263 233.771 19.5654C234.33 19.8846 235.075 20.4223 235.413 20.7751C235.769 21.1279 236.226 21.8 236.429 22.2536C236.75 22.9593 236.818 23.3793 236.818 24.7738C236.818 26.3027 236.784 26.5379 236.327 27.378C236.056 27.882 235.481 28.6549 235.058 29.0749C234.634 29.495 233.822 30.0494 233.263 30.3014C232.705 30.5702 231.706 30.8895 231.029 31.0071C230.352 31.1415 229.218 31.2423 228.524 31.2423C227.83 31.2423 226.662 31.1247 225.951 30.9903C225.223 30.8559 224.173 30.5198 223.615 30.251C223.039 29.9654 222.176 29.3437 221.617 28.7725C221.008 28.1677 220.416 27.3444 220.043 26.6219C219.722 25.9835 219.366 25.009 219.265 24.4882C219.146 23.9673 219.078 23.4969 219.129 23.4465C219.18 23.3793 219.908 23.1945 220.737 23.0097C221.584 22.808 222.396 22.6232 222.565 22.5896C222.802 22.5224 222.87 22.6568 222.955 23.3121C223.005 23.7489 223.226 24.4882 223.429 24.9418C223.649 25.4122 224.072 26.0339 224.393 26.3531C224.715 26.6555 225.274 27.0756 225.646 27.2772C226.239 27.5796 226.611 27.63 228.524 27.63C230.453 27.63 230.809 27.5796 231.401 27.2604C231.774 27.0756 232.315 26.6723 232.586 26.3699C233.009 25.9331 233.111 25.6811 233.145 24.8914C233.196 24.1521 233.128 23.8161 232.857 23.3961C232.62 23.0265 232.146 22.6736 231.452 22.3544C230.86 22.0856 228.998 21.4471 227.305 20.9263C225.595 20.4055 223.75 19.767 223.192 19.4814C222.633 19.2126 221.837 18.6581 221.414 18.2717C220.991 17.8685 220.483 17.23 220.314 16.8436C220.128 16.4404 219.925 15.6843 219.874 15.1635C219.806 14.4914 219.857 13.8866 220.026 13.2649C220.179 12.7609 220.551 11.9712 220.873 11.5008C221.194 11.0472 221.821 10.3751 222.278 10.0223C222.735 9.68626 223.513 9.24942 224.004 9.06461C224.495 8.8798 225.409 8.66138 226.035 8.57737C226.662 8.49337 227.66 8.45976 228.27 8.51017Z" fill="#ECEEE6"/>
<path fill-rule="evenodd" clip-rule="evenodd" d="M261.363 8.51017C261.921 8.56057 262.768 8.71178 263.225 8.84619C263.699 8.9974 264.291 9.21582 264.545 9.33343C264.799 9.46784 265.425 9.90467 266.864 11.0808V9.06461L270.673 9.14862V39.7269L266.695 39.8109L266.712 28.4701L265.984 29.2093C265.594 29.6126 264.9 30.1166 264.46 30.335C264.02 30.5534 263.174 30.8559 262.598 31.0071C261.82 31.2087 261.143 31.2591 260.093 31.1919C259.298 31.1415 258.197 30.9399 257.639 30.7382C257.08 30.5534 256.251 30.1502 255.794 29.8478C255.337 29.5454 254.575 28.8901 254.101 28.3861C253.627 27.882 252.95 26.8908 252.594 26.2019C252.256 25.5131 251.816 24.337 251.613 23.5977C251.342 22.556 251.257 21.7496 251.257 19.9014C251.257 18.0365 251.325 17.2636 251.613 16.2051C251.816 15.4659 252.239 14.3402 252.56 13.685C252.882 13.0465 253.508 12.0888 253.965 11.5848C254.423 11.0808 255.235 10.3583 255.794 9.98868C256.335 9.60225 257.215 9.16542 257.723 8.9974C258.231 8.81259 259.044 8.62778 259.501 8.56057C259.975 8.49337 260.804 8.45976 261.363 8.51017ZM258.654 12.7609C258.282 12.9289 257.656 13.3993 257.249 13.8026C256.86 14.2058 256.335 14.9451 256.081 15.4491C255.844 15.9531 255.54 16.978 255.404 17.7173C255.252 18.6077 255.201 19.5822 255.252 20.6239C255.32 21.4639 255.489 22.6064 255.658 23.1441C255.827 23.6649 256.166 24.4378 256.403 24.8578C256.64 25.2778 257.165 25.8995 257.571 26.2523C257.977 26.6051 258.739 27.042 259.247 27.2268C260.008 27.5124 260.466 27.5628 261.701 27.5124C262.801 27.462 263.411 27.3444 263.902 27.0924C264.274 26.9076 264.833 26.5379 265.154 26.2691C265.476 26.0003 265.933 25.4458 266.17 25.0258C266.609 24.2881 266.61 24.2196 266.661 20.5132L266.661 20.4895C266.695 18.0365 266.661 16.4404 266.525 15.9531C266.424 15.5331 266.102 14.8274 265.798 14.3738C265.51 13.9202 264.951 13.3489 264.579 13.0969C264.206 12.8449 263.631 12.5593 263.309 12.4585C262.988 12.3409 262.294 12.2232 261.786 12.1896C261.278 12.1392 260.516 12.1896 260.093 12.2737C259.67 12.3577 259.027 12.5761 258.654 12.7609Z" fill="#ECEEE6"/>
<path fill-rule="evenodd" clip-rule="evenodd" d="M309.944 8.51017C310.604 8.56057 311.704 8.77899 312.398 9.01421C313.092 9.24942 314.057 9.68626 314.514 9.98868C314.988 10.2911 315.648 10.8623 316.004 11.232C316.342 11.6184 316.901 12.3241 317.223 12.8113C317.544 13.2817 318.001 14.2226 318.238 14.861C318.458 15.5163 318.729 16.5244 318.831 17.1292C318.915 17.7341 319 18.8429 319 20.9935H303.342L303.461 22.1192C303.545 22.8921 303.782 23.6481 304.172 24.4378C304.544 25.2106 305.018 25.8659 305.577 26.3363C306.034 26.7395 306.762 27.1764 307.236 27.3276C307.726 27.4788 308.641 27.5964 309.351 27.5796C310.045 27.5796 310.926 27.4956 311.298 27.4116C311.671 27.3108 312.365 26.9748 312.822 26.6723C313.296 26.3699 314.04 25.6307 314.497 25.0258C314.954 24.421 315.395 23.9169 315.462 23.9001C315.547 23.8665 316.224 24.3034 316.969 24.8578C317.714 25.4122 318.323 25.9667 318.323 26.0843C318.323 26.1851 318.035 26.6555 317.68 27.1092C317.341 27.5628 316.596 28.3525 316.038 28.8397C315.479 29.3437 314.565 29.9822 314.006 30.251C313.448 30.5198 312.466 30.8559 311.806 30.9903C311.163 31.1247 310.096 31.2423 309.436 31.2423C308.793 31.2423 307.726 31.1247 307.066 30.9903C306.423 30.8391 305.39 30.4862 304.781 30.1838C304.07 29.8478 303.258 29.2429 302.496 28.4701C301.751 27.7308 301.074 26.8572 300.685 26.1179C300.346 25.4795 299.889 24.337 299.686 23.5977C299.398 22.5224 299.331 21.7832 299.331 19.9014C299.314 18.0197 299.398 17.2804 299.686 16.2051C299.889 15.4659 300.278 14.4074 300.549 13.853C300.82 13.2985 301.413 12.3913 301.853 11.8536C302.31 11.2992 303.122 10.5431 303.681 10.1567C304.239 9.77026 305.137 9.29983 305.678 9.09821C306.203 8.8966 307.117 8.66138 307.71 8.57737C308.285 8.49337 309.301 8.45976 309.944 8.51017ZM306.135 12.8785C305.814 13.0633 305.306 13.5169 305.018 13.8698C304.713 14.2394 304.273 14.9451 304.036 15.4491C303.799 15.9531 303.545 16.726 303.478 17.1796L303.342 17.9693H315.022C314.853 16.6084 314.616 15.7851 314.379 15.2811C314.142 14.777 313.685 14.0714 313.38 13.7186C313.075 13.3489 312.398 12.8617 311.891 12.6265C311.163 12.2737 310.655 12.1728 309.521 12.1392C308.691 12.1056 307.811 12.1896 307.405 12.3073C307.032 12.4249 306.457 12.6769 306.135 12.8785Z" fill="#ECEEE6"/>
<path d="M196.954 9.06461H201.017L201.102 24.6058L201.576 25.5803C201.982 26.4035 202.151 26.5883 202.93 26.958C203.658 27.3108 204.064 27.378 205.249 27.378C206.4 27.378 206.857 27.294 207.534 26.9916C208.008 26.7731 208.668 26.2691 209.024 25.8995C209.396 25.4794 209.751 24.841 209.904 24.3202C210.124 23.5809 210.158 22.1528 210.158 9.06461H214.22V30.5702H210.327V28.6381L209.565 29.3605C209.142 29.747 208.499 30.2174 208.126 30.4022C207.754 30.587 207.009 30.8559 206.484 30.9903C205.943 31.1247 205.029 31.2423 204.453 31.2423C203.861 31.2423 202.997 31.1583 202.507 31.0575C202.016 30.9567 201.237 30.6878 200.763 30.4862C200.289 30.2678 199.527 29.6798 199.036 29.1589C198.546 28.6381 197.987 27.8652 197.784 27.4284C197.598 26.9748 197.327 26.0675 197.191 25.4122C197.005 24.4714 196.954 22.4552 196.954 16.6252V9.06461Z" fill="#ECEEE6"/>
<path d="M241.981 9.06461H246.043V30.5702H241.981V9.06461Z" fill="#ECEEE6"/>
<path d="M277.003 9.06461H280.914L280.964 16.6756C281.015 21.6656 281.1 24.4714 281.218 24.8578C281.32 25.177 281.591 25.7147 281.794 26.0171C282.014 26.3363 282.454 26.7563 282.776 26.9412C283.216 27.1932 283.757 27.294 284.807 27.3444C285.603 27.378 286.567 27.3276 286.974 27.2268C287.363 27.126 288.006 26.7899 288.412 26.4875C288.836 26.1515 289.326 25.5467 290.139 23.9673L290.224 9.06461L294.202 9.14862L294.286 30.5702H290.224L290.241 28.6381L289.394 29.4446C288.92 29.8814 288.209 30.3854 287.82 30.5534C287.414 30.7214 286.601 30.9567 285.992 31.0743C285.332 31.2087 284.384 31.2591 283.622 31.1919C282.928 31.1415 281.929 30.9399 281.421 30.7551C280.914 30.5702 280.169 30.1838 279.78 29.8982C279.373 29.6294 278.798 29.0413 278.459 28.6045C278.138 28.1509 277.714 27.3444 277.494 26.7899C277.123 25.8018 277.122 25.615 277.072 17.5094V17.508L277.071 17.4316L277.003 9.06461Z" fill="#ECEEE6"/>
<path d="M1 2.32432V30.5766H8.98792V10.2703H20.9698V30.5766H28.9577V10.2703H40.9396V32.8089C40.7199 32.7922 40.4979 32.7838 40.274 32.7838C35.4947 32.7838 31.6204 36.6378 31.6204 41.3919C31.6204 46.146 35.4947 50 40.274 50C45.0532 50 48.9275 46.146 48.9275 41.3919C48.9275 41.3181 48.9266 41.2445 48.9247 41.1712H48.9275V10.2703H40.9396V2.32432H1Z" fill="#ECEEE6"/>
<path d="M40.9396 10.2703H28.9577V30.5766H20.9698V10.2703H8.98792V30.5766H1V2.32432H40.9396V10.2703ZM40.9396 10.2703V32.8089C40.7199 32.7922 40.4979 32.7838 40.274 32.7838C35.4947 32.7838 31.6204 36.6378 31.6204 41.3919C31.6204 46.146 35.4947 50 40.274 50C45.0532 50 48.9275 46.146 48.9275 41.3919C48.9275 41.3181 48.9266 41.2445 48.9247 41.1712H48.9275V10.2703H40.9396ZM241.812 5.20032H246.213V1H241.812V5.20032ZM112.352 1.50404H117.058L112.572 6.54442H110.913C109.965 6.54442 109.254 6.47721 109.237 6.37641C109.22 6.2924 109.914 5.14991 110.778 3.85622L112.352 1.50404ZM67.1222 2.17609H72.2851L76.6015 12.4249C78.9713 18.0701 80.9518 22.6736 81.0026 22.6736C81.0534 22.6736 83.0339 18.0869 89.7371 2.2601H94.9676L95.0522 30.5702H90.8204V19.9518C90.8374 14.105 90.7696 9.38383 90.7019 9.45104C90.6342 9.53505 88.5522 14.3066 81.5951 30.4862H80.444L76.0091 20.1534C73.5546 14.4746 71.4726 9.70306 71.3879 9.56865C71.2694 9.40064 71.2017 12.5761 71.1848 30.5702H67.1222V2.17609ZM162.423 2.17609L167.586 2.15929L171.902 12.3745C174.255 18.0029 176.219 22.6232 176.252 22.6736C176.286 22.724 176.337 22.724 176.388 22.6736C176.439 22.6232 178.402 18.0197 185.071 2.2601L190.353 2.17609V30.5702H186.121L186.036 9.31663L176.896 30.587L175.778 30.4862L171.343 20.1702C168.906 14.4914 166.824 9.82067 166.705 9.78706C166.536 9.75346 166.485 11.904 166.485 30.5702H162.423V2.17609ZM126.198 3.85622H130.092V9.06461H135.508V12.5929H130.092L130.142 18.7757C130.176 24.1858 130.227 25.0258 130.481 25.5803C130.633 25.9163 130.938 26.3027 131.158 26.4035C131.361 26.5211 132.225 26.6555 134.577 26.7899L134.662 30.5702L132.428 30.5198C130.481 30.4694 130.058 30.419 129.262 30.0494C128.771 29.831 128.077 29.3437 127.739 28.9741C127.383 28.6045 126.926 27.8484 126.706 27.294C126.3 26.2859 126.283 26.2355 126.198 12.5929H122.982V9.06461H126.198V3.85622ZM110.964 8.51017C111.472 8.54377 112.284 8.66138 112.741 8.76219C113.215 8.86299 114.078 9.16542 114.688 9.45104C115.45 9.80387 116.161 10.3247 116.99 11.148C117.819 11.9712 118.395 12.7273 118.818 13.5674C119.157 14.2226 119.58 15.3987 119.766 16.1715C119.952 16.9276 120.155 18.3221 120.359 20.9935H104.447L104.582 21.9176C104.65 22.4216 104.836 23.1945 104.972 23.6481C105.124 24.0849 105.513 24.841 105.818 25.3282C106.157 25.8491 106.732 26.4035 107.206 26.7059C107.646 26.9916 108.306 27.3108 108.679 27.4116C109.051 27.4956 109.931 27.5796 110.625 27.5796C111.421 27.5796 112.25 27.4788 112.826 27.2772C113.418 27.0756 114.062 26.6891 114.603 26.2019C115.077 25.7651 115.704 25.0258 116.55 23.6817L118.039 24.7906C118.852 25.3954 119.512 25.9667 119.512 26.0339C119.512 26.1179 119.174 26.6555 118.75 27.2268C118.327 27.798 117.532 28.6213 116.973 29.0581C116.414 29.5118 115.534 30.0662 115.026 30.3014C114.519 30.5366 113.571 30.8391 112.911 30.9903C112.267 31.1247 111.201 31.2423 110.541 31.2423C109.881 31.2423 108.763 31.0911 108.002 30.9063C107.257 30.7046 106.207 30.3182 105.649 30.0158C105.09 29.7134 104.21 29.0581 103.702 28.5541C103.177 28.05 102.466 27.1764 102.128 26.6219C101.789 26.0675 101.366 25.1602 101.18 24.6058C100.994 24.0513 100.74 23.0769 100.638 22.4216C100.503 21.6992 100.452 20.4055 100.52 19.0614C100.587 17.3308 100.689 16.5916 101.044 15.5331C101.281 14.7938 101.755 13.7354 102.077 13.1809C102.416 12.6265 103.093 11.7696 103.567 11.2824C104.058 10.7951 104.785 10.1735 105.209 9.90467C105.632 9.63585 106.427 9.24942 106.986 9.04781C107.545 8.86299 108.459 8.64458 109.017 8.56057C109.576 8.49337 110.456 8.45976 110.964 8.51017ZM106.698 13.4161C106.207 13.853 105.598 14.6258 105.344 15.1299C105.107 15.6339 104.819 16.3732 104.718 16.7932C104.616 17.2132 104.548 17.6501 104.532 17.7677C104.532 17.9189 105.818 17.9693 110.371 17.9693C113.588 17.9693 116.211 17.9525 116.211 17.9357C116.211 17.9021 116.127 17.4316 116.025 16.8772C115.924 16.3228 115.636 15.4491 115.365 14.9451C115.111 14.441 114.586 13.7354 114.197 13.3993C113.825 13.0465 113.215 12.6433 112.877 12.4921C112.504 12.3409 111.59 12.1896 110.71 12.156C109.66 12.1056 108.933 12.1728 108.391 12.3409C107.883 12.4921 107.24 12.9121 106.698 13.4161ZM147.358 8.42616C147.493 8.40936 148.187 8.47657 148.881 8.56057C149.575 8.66138 150.608 8.8798 151.166 9.06461C151.725 9.24942 152.605 9.68626 153.113 10.0391C153.621 10.3919 154.298 11.064 154.602 11.5176C154.907 11.9712 155.33 12.8281 155.533 13.4329C155.872 14.4746 155.889 14.8442 155.99 30.5702H152.436V29.6462C152.436 29.1421 152.402 28.7221 152.351 28.7221C152.3 28.7221 151.877 29.0413 151.386 29.4446C150.895 29.831 150.1 30.3182 149.609 30.5366C149.118 30.7382 148.322 30.9903 147.831 31.0743C147.341 31.1751 146.443 31.2423 145.834 31.2423C145.225 31.2423 144.243 31.1415 143.633 31.0071C143.024 30.8895 142.212 30.6206 141.822 30.419C141.416 30.2342 140.756 29.747 140.316 29.3605C139.893 28.9573 139.351 28.2181 139.097 27.714C138.758 27.0084 138.64 26.4539 138.589 25.3618C138.521 24.2866 138.589 23.6817 138.826 22.9257C139.063 22.136 139.334 21.716 140.079 20.9767C140.587 20.4727 141.433 19.851 141.941 19.6158C142.449 19.3638 143.481 18.9774 144.226 18.7421L144.336 18.7098C145.1 18.4857 146.386 18.1085 147.273 17.8685C148.204 17.6165 149.423 17.2132 149.981 16.978C150.54 16.726 151.166 16.306 151.386 16.0203C151.64 15.7011 151.776 15.3147 151.776 14.9115C151.759 14.5586 151.657 14.0714 151.522 13.8194C151.386 13.5505 151.115 13.1809 150.895 12.9793C150.675 12.7777 150.184 12.4921 149.812 12.3409C149.423 12.1728 148.61 12.0552 147.865 12.0384C147.171 12.0216 146.223 12.1224 145.749 12.2569C145.14 12.4249 144.666 12.7273 144.057 13.3321C143.498 13.8866 143.075 14.5082 142.872 15.0795C142.686 15.5667 142.466 15.9531 142.364 15.9531C142.279 15.9363 141.518 15.6843 140.671 15.3819C139.199 14.861 139.148 14.8106 139.199 14.3402C139.215 14.0714 139.452 13.3993 139.723 12.8449C139.994 12.2905 140.468 11.5344 140.79 11.1648C141.111 10.7951 141.755 10.2407 142.212 9.93828C142.669 9.63585 143.464 9.23262 143.972 9.04781C144.48 8.84619 145.394 8.64458 146.003 8.56057C146.613 8.49337 147.222 8.42616 147.358 8.42616ZM150.641 19.935C150.184 20.1366 148.746 20.6071 147.442 21.0103C146.139 21.3967 144.734 21.884 144.311 22.0856C143.887 22.2872 143.346 22.6904 143.092 22.9929C142.838 23.2785 142.567 23.7993 142.516 24.1522C142.466 24.4882 142.449 25.0426 142.516 25.3618C142.567 25.6811 142.753 26.1347 142.923 26.3531C143.075 26.5715 143.397 26.8908 143.633 27.0588C143.87 27.2436 144.514 27.462 145.072 27.5628C145.631 27.6636 146.579 27.6972 147.188 27.6468C147.798 27.5796 148.627 27.4284 149.05 27.294C149.473 27.1596 150.15 26.7731 150.557 26.4203C150.963 26.0675 151.437 25.4963 151.623 25.1602C151.894 24.6058 151.928 24.169 151.894 21.8C151.86 19.767 151.792 19.1454 151.657 19.3302C151.555 19.4646 151.098 19.7334 150.641 19.935ZM228.27 8.51017C228.879 8.54377 229.759 8.66138 230.216 8.76219C230.69 8.86299 231.52 9.14862 232.078 9.40064C232.722 9.70306 233.45 10.2407 234.059 10.8623C234.651 11.4672 235.244 12.3073 235.616 13.0969C235.955 13.7858 236.226 14.4578 236.226 14.5754C236.226 14.6762 235.786 14.8947 235.261 15.0459C234.818 15.1556 234.297 15.3103 233.964 15.409C233.889 15.4312 233.824 15.4505 233.771 15.4659C233.5 15.5499 233.145 15.6171 233.009 15.6171C232.874 15.6171 232.62 15.2979 232.468 14.9115C232.299 14.5082 231.909 13.8866 231.605 13.5169C231.283 13.1473 230.657 12.6601 230.2 12.4249C229.539 12.0888 229.065 11.988 227.847 11.9544C226.543 11.8872 226.205 11.9376 225.409 12.2737C224.901 12.4921 224.309 12.8785 224.106 13.1473C223.886 13.3993 223.666 13.853 223.598 14.1554C223.547 14.4746 223.615 14.9451 223.767 15.3315C223.97 15.7851 224.258 16.0539 224.851 16.3564C225.291 16.5748 226.679 17.0788 227.931 17.4652C229.184 17.8517 230.792 18.3557 231.486 18.5909C232.18 18.8261 233.213 19.263 233.771 19.5654C234.33 19.8846 235.075 20.4223 235.413 20.7751C235.769 21.1279 236.226 21.8 236.429 22.2536C236.75 22.9593 236.818 23.3793 236.818 24.7738C236.818 26.3027 236.784 26.5379 236.327 27.378C236.056 27.882 235.481 28.6549 235.058 29.0749C234.634 29.495 233.822 30.0494 233.263 30.3014C232.705 30.5702 231.706 30.8895 231.029 31.0071C230.352 31.1415 229.218 31.2423 228.524 31.2423C227.83 31.2423 226.662 31.1247 225.951 30.9903C225.223 30.8559 224.173 30.5198 223.615 30.251C223.039 29.9654 222.176 29.3437 221.617 28.7725C221.008 28.1677 220.416 27.3444 220.043 26.6219C219.722 25.9835 219.366 25.009 219.265 24.4882C219.146 23.9673 219.078 23.4969 219.129 23.4465C219.18 23.3793 219.908 23.1945 220.737 23.0097C221.584 22.808 222.396 22.6232 222.565 22.5896C222.802 22.5224 222.87 22.6568 222.955 23.3121C223.005 23.7489 223.226 24.4882 223.429 24.9418C223.649 25.4122 224.072 26.0339 224.393 26.3531C224.715 26.6555 225.274 27.0756 225.646 27.2772C226.239 27.5796 226.611 27.63 228.524 27.63C230.453 27.63 230.809 27.5796 231.401 27.2604C231.774 27.0756 232.315 26.6723 232.586 26.3699C233.009 25.9331 233.111 25.6811 233.145 24.8914C233.196 24.1521 233.128 23.8161 232.857 23.3961C232.62 23.0265 232.146 22.6736 231.452 22.3544C230.86 22.0856 228.998 21.4471 227.305 20.9263C225.595 20.4055 223.75 19.767 223.192 19.4814C222.633 19.2126 221.837 18.6581 221.414 18.2717C220.991 17.8685 220.483 17.23 220.314 16.8436C220.128 16.4404 219.925 15.6843 219.874 15.1635C219.806 14.4914 219.857 13.8866 220.026 13.2649C220.179 12.7609 220.551 11.9712 220.873 11.5008C221.194 11.0472 221.821 10.3751 222.278 10.0223C222.735 9.68626 223.513 9.24942 224.004 9.06461C224.495 8.8798 225.409 8.66138 226.035 8.57737C226.662 8.49337 227.66 8.45976 228.27 8.51017ZM261.363 8.51017C261.921 8.56057 262.768 8.71178 263.225 8.84619C263.699 8.9974 264.291 9.21582 264.545 9.33343C264.799 9.46784 265.425 9.90467 266.864 11.0808V9.06461L270.673 9.14862V39.7269L266.695 39.8109L266.712 28.4701L265.984 29.2093C265.594 29.6126 264.9 30.1166 264.46 30.335C264.02 30.5534 263.174 30.8559 262.598 31.0071C261.82 31.2087 261.143 31.2591 260.093 31.1919C259.298 31.1415 258.197 30.9399 257.639 30.7382C257.08 30.5534 256.251 30.1502 255.794 29.8478C255.337 29.5454 254.575 28.8901 254.101 28.3861C253.627 27.882 252.95 26.8908 252.594 26.2019C252.256 25.5131 251.816 24.337 251.613 23.5977C251.342 22.556 251.257 21.7496 251.257 19.9014C251.257 18.0365 251.325 17.2636 251.613 16.2051C251.816 15.4659 252.239 14.3402 252.56 13.685C252.882 13.0465 253.508 12.0888 253.965 11.5848C254.423 11.0808 255.235 10.3583 255.794 9.98868C256.335 9.60225 257.215 9.16542 257.723 8.9974C258.231 8.81259 259.044 8.62778 259.501 8.56057C259.975 8.49337 260.804 8.45976 261.363 8.51017ZM258.654 12.7609C258.282 12.9289 257.656 13.3993 257.249 13.8026C256.86 14.2058 256.335 14.9451 256.081 15.4491C255.844 15.9531 255.54 16.978 255.404 17.7173C255.252 18.6077 255.201 19.5822 255.252 20.6239C255.32 21.4639 255.489 22.6064 255.658 23.1441C255.827 23.6649 256.166 24.4378 256.403 24.8578C256.64 25.2778 257.165 25.8995 257.571 26.2523C257.977 26.6051 258.739 27.042 259.247 27.2268C260.008 27.5124 260.466 27.5628 261.701 27.5124C262.801 27.462 263.411 27.3444 263.902 27.0924C264.274 26.9076 264.833 26.5379 265.154 26.2691C265.476 26.0003 265.933 25.4458 266.17 25.0258C266.609 24.2881 266.61 24.2196 266.661 20.5132L266.661 20.4895C266.695 18.0365 266.661 16.4404 266.525 15.9531C266.424 15.5331 266.102 14.8274 265.798 14.3738C265.51 13.9202 264.951 13.3489 264.579 13.0969C264.206 12.8449 263.631 12.5593 263.309 12.4585C262.988 12.3409 262.294 12.2232 261.786 12.1896C261.278 12.1392 260.516 12.1896 260.093 12.2737C259.67 12.3577 259.027 12.5761 258.654 12.7609ZM309.944 8.51017C310.604 8.56057 311.704 8.77899 312.398 9.01421C313.092 9.24942 314.057 9.68626 314.514 9.98868C314.988 10.2911 315.648 10.8623 316.004 11.232C316.342 11.6184 316.901 12.3241 317.223 12.8113C317.544 13.2817 318.001 14.2226 318.238 14.861C318.458 15.5163 318.729 16.5244 318.831 17.1292C318.915 17.7341 319 18.8429 319 20.9935H303.342L303.461 22.1192C303.545 22.8921 303.782 23.6481 304.172 24.4378C304.544 25.2106 305.018 25.8659 305.577 26.3363C306.034 26.7395 306.762 27.1764 307.236 27.3276C307.726 27.4788 308.641 27.5964 309.351 27.5796C310.045 27.5796 310.926 27.4956 311.298 27.4116C311.67 27.3108 312.365 26.9748 312.822 26.6723C313.296 26.3699 314.04 25.6307 314.497 25.0258C314.954 24.421 315.394 23.9169 315.462 23.9001C315.547 23.8665 316.224 24.3034 316.969 24.8578C317.714 25.4122 318.323 25.9667 318.323 26.0843C318.323 26.1851 318.035 26.6555 317.68 27.1092C317.341 27.5628 316.596 28.3525 316.038 28.8397C315.479 29.3437 314.565 29.9822 314.006 30.251C313.448 30.5198 312.466 30.8559 311.806 30.9903C311.163 31.1247 310.096 31.2423 309.436 31.2423C308.793 31.2423 307.726 31.1247 307.066 30.9903C306.423 30.8391 305.39 30.4862 304.781 30.1838C304.07 29.8478 303.258 29.2429 302.496 28.4701C301.751 27.7308 301.074 26.8572 300.685 26.1179C300.346 25.4795 299.889 24.337 299.686 23.5977C299.398 22.5224 299.331 21.7832 299.331 19.9014C299.314 18.0197 299.398 17.2804 299.686 16.2051C299.889 15.4659 300.278 14.4074 300.549 13.853C300.82 13.2985 301.413 12.3913 301.853 11.8536C302.31 11.2992 303.122 10.5431 303.681 10.1567C304.239 9.77026 305.137 9.29983 305.678 9.09821C306.203 8.8966 307.117 8.66138 307.71 8.57737C308.285 8.49337 309.301 8.45976 309.944 8.51017ZM306.135 12.8785C305.814 13.0633 305.306 13.5169 305.018 13.8698C304.713 14.2394 304.273 14.9451 304.036 15.4491C303.799 15.9531 303.545 16.726 303.478 17.1796L303.342 17.9693H315.022C314.853 16.6084 314.616 15.7851 314.379 15.2811C314.142 14.777 313.685 14.0714 313.38 13.7186C313.075 13.3489 312.398 12.8617 311.891 12.6265C311.163 12.2737 310.655 12.1728 309.521 12.1392C308.691 12.1056 307.811 12.1896 307.405 12.3073C307.032 12.4249 306.457 12.6769 306.135 12.8785ZM196.954 9.06461H201.017L201.102 24.6058L201.576 25.5803C201.982 26.4035 202.151 26.5883 202.93 26.958C203.658 27.3108 204.064 27.378 205.249 27.378C206.4 27.378 206.857 27.294 207.534 26.9916C208.008 26.7731 208.668 26.2691 209.024 25.8995C209.396 25.4794 209.751 24.841 209.904 24.3202C210.124 23.5809 210.158 22.1528 210.158 9.06461H214.22V30.5702H210.327V28.6381L209.565 29.3605C209.142 29.747 208.499 30.2174 208.126 30.4022C207.754 30.587 207.009 30.8559 206.484 30.9903C205.943 31.1247 205.029 31.2423 204.453 31.2423C203.861 31.2423 202.997 31.1583 202.507 31.0575C202.016 30.9567 201.237 30.6878 200.763 30.4862C200.289 30.2678 199.527 29.6798 199.036 29.1589C198.546 28.6381 197.987 27.8652 197.784 27.4284C197.598 26.9748 197.327 26.0675 197.191 25.4122C197.005 24.4714 196.954 22.4552 196.954 16.6252V9.06461ZM241.981 9.06461H246.043V30.5702H241.981V9.06461ZM277.003 9.06461H280.914L280.964 16.6756C281.015 21.6656 281.1 24.4714 281.218 24.8578C281.32 25.177 281.591 25.7147 281.794 26.0171C282.014 26.3363 282.454 26.7563 282.776 26.9412C283.216 27.1932 283.757 27.294 284.807 27.3444C285.603 27.378 286.567 27.3276 286.974 27.2268C287.363 27.126 288.006 26.7899 288.412 26.4875C288.836 26.1515 289.326 25.5467 290.139 23.9673L290.224 9.06461L294.202 9.14862L294.286 30.5702H290.224L290.241 28.6381L289.394 29.4446C288.92 29.8814 288.209 30.3854 287.82 30.5534C287.414 30.7214 286.601 30.9567 285.992 31.0743C285.332 31.2087 284.384 31.2591 283.622 31.1919C282.928 31.1415 281.929 30.9399 281.421 30.7551C280.914 30.5702 280.169 30.1838 279.78 29.8982C279.373 29.6294 278.798 29.0413 278.459 28.6045C278.138 28.1509 277.714 27.3444 277.494 26.7899C277.123 25.8018 277.122 25.615 277.072 17.5094V17.508L277.071 17.4316L277.003 9.06461Z" stroke="#ECEEE6" stroke-width="0.377101"/>
</svg>
