<svg width="266" height="27" viewBox="0 0 266 27" fill="none" xmlns="http://www.w3.org/2000/svg">
<path fill-rule="evenodd" clip-rule="evenodd" d="M74.4875 0.000816415C79.0701 0.000816415 82.6596 3.12497 82.6596 7.11396V7.18834C82.6596 11.5304 80.7583 14.0661 76.522 14.9848L83.5204 23.5178L79.2508 27L65.3364 10.0975L74.2627 10.1547C75.6571 10.1547 76.4903 9.26702 76.4903 7.77933C76.4903 6.3701 75.5355 5.46033 74.0588 5.46033H59.7231V0.000816415H74.4875ZM219.724 0.000491361V0.00703024L239.053 23.5142L234.722 26.9408L219.724 8.70023V25.8013H214.163V0.000491361H219.724ZM127.19 0V16.4259C127.19 19.0531 129.981 21.1677 132.762 21.1677C135.558 21.1677 138.368 19.0686 138.368 16.4611V0H143.93V16.672C143.93 22.1413 139.013 26.9395 132.762 26.9395C126.529 26.9395 121.63 22.1413 121.63 16.672V0H127.19ZM35.2281 0V16.4259C35.2281 19.0531 38.0185 21.1677 40.7989 21.1677C43.5959 21.1677 46.4054 19.0686 46.4054 16.4611V0H51.967V16.672C51.967 22.1413 47.0506 26.9395 40.7989 26.9395C34.5663 26.9395 29.6674 22.1413 29.6674 16.672V0H35.2281ZM202.877 20.3396V25.8015H183.216V20.3396H202.877ZM159.761 0.00114147V20.34L173.859 20.3409V25.8012H154.196L154.206 0.00114147H159.761ZM104.559 0.000899569C109.143 0.0368658 112.732 3.17655 112.732 7.14837V7.22357C112.732 9.65047 112.051 11.564 110.709 12.9185C112.051 14.2721 112.732 16.1865 112.732 18.6134V18.6878C112.732 22.6768 109.142 25.8009 104.559 25.8009H92.5662V20.3349H104.125C105.606 20.3349 106.562 19.4267 106.562 18.0232V17.8459C106.562 16.4595 105.653 15.6315 104.131 15.6315H96.9699V10.1695H104.131C105.654 10.1695 106.562 9.35539 106.562 7.99194V7.81374C106.562 6.3849 105.608 5.46123 104.131 5.46123L92.5662 5.4604V0.000899569H104.559ZM19.6616 0.000816415L19.6525 25.8009H14.0984V5.46114L0 5.46033V0.000816415H19.6616ZM266 0.000816415V5.46033L252.105 5.46114V25.8009H246.55L246.541 0.000816415H266ZM197.705 10.1693V15.6312H183.216V10.1693H197.705ZM202.877 0.000657668V5.46098H183.216V0.000657668H202.877Z" fill="#ECEEE6"/>
</svg>
