<svg preserveAspectRatio="none" width="100%" height="100%" overflow="visible" style="display: block;" viewBox="0 0 188 48" fill="none" xmlns="http://www.w3.org/2000/svg">
<g id="Accenture">
<path d="M107.61 0L126.594 7.54339V12.1532L107.61 19.6966V13.8295L118.579 9.84831L107.61 5.86708V0Z" fill="var(--fill-0, #E9EFEC)"/>
<path d="M121.646 48C117.166 48 114.66 45.832 114.66 41.1537V32.2916H112.268V27.6513H114.66V23.5055L121.456 21.055V27.6513H125.367V32.2916H121.456V40.5071C121.456 41.9525 122.178 42.5991 123.469 42.5991C124.228 42.5991 124.798 42.4849 125.405 42.2567V47.4295L125.375 47.4374C124.502 47.6656 123.223 48 121.646 48Z" fill="var(--fill-0, #E9EFEC)"/>
<path fill-rule="evenodd" clip-rule="evenodd" d="M6.72054 48C3.15144 48 0 46.2504 0 42.0285C0 37.3502 3.94879 35.5246 10.5554 35.5246H12.4539V35.0681C12.4539 33.1664 11.9982 31.9113 9.834 31.9113C7.97352 31.9113 7.29007 33.0143 7.1382 34.2694H0.759383C1.06314 29.477 4.82208 27.1189 10.2517 27.1189C15.7192 27.1189 19.2124 29.3629 19.2124 34.6498V47.5436H12.6058V45.2235C11.6565 46.6688 9.90994 48 6.72054 48ZM9.07462 43.3978C11.011 43.3978 12.4539 42.2948 12.4539 40.5832V39.3661H10.6693C7.93555 39.3661 6.72054 39.8986 6.72054 41.5341C6.72054 42.6751 7.47992 43.3978 9.07462 43.3978Z" fill="var(--fill-0, #E9EFEC)"/>
<path d="M32.4684 48C26.5452 48 22.0268 44.5388 22.0268 37.8447V37.5404C22.0268 30.9223 26.773 27.1189 32.6202 27.1189C37.4803 27.1189 41.9606 29.2488 42.3403 35.2964H35.9615C35.6578 33.4326 34.7465 32.4057 32.7721 32.4057C30.38 32.4057 28.9752 34.1173 28.9752 37.4643V37.7686C28.9752 41.2298 30.3041 43.0174 32.886 43.0174C34.7845 43.0174 36.1134 41.8764 36.3412 39.7084H42.4542C42.2644 44.729 38.8851 48 32.4684 48Z" fill="var(--fill-0, #E9EFEC)"/>
<path d="M44.1631 37.8447C44.1631 44.5388 48.6815 48 54.6047 48C61.0214 48 64.4007 44.729 64.5905 39.7084H58.4775C58.2497 41.8764 56.9208 43.0174 55.0223 43.0174C52.4404 43.0174 51.1115 41.2298 51.1115 37.7686V37.4643C51.1115 34.1173 52.5163 32.4057 54.9084 32.4057C56.8828 32.4057 57.7941 33.4326 58.0978 35.2964H64.4766C64.0969 29.2488 59.6166 27.1189 54.7565 27.1189C48.9093 27.1189 44.1631 30.9223 44.1631 37.5404V37.8447Z" fill="var(--fill-0, #E9EFEC)"/>
<path fill-rule="evenodd" clip-rule="evenodd" d="M77.0827 48C70.8557 48 66.2994 44.3487 66.2994 37.8447V37.5404C66.2994 31.1506 71.0456 27.1189 77.0447 27.1189C82.4743 27.1189 87.1445 30.2377 87.1445 37.3883V39.1759H73.1719C73.3617 41.8003 74.8805 43.3217 77.3105 43.3217C79.5507 43.3217 80.4999 42.2948 80.7657 40.9636H87.1445C86.537 45.4517 83.0818 48 77.0827 48ZM73.2478 35.3344H80.5379C80.424 32.9382 79.2469 31.607 77.0447 31.607C74.9944 31.607 73.5895 32.9382 73.2478 35.3344Z" fill="var(--fill-0, #E9EFEC)"/>
<path d="M90.0551 27.6513V47.5436H96.8515V36.3994C96.8515 33.851 98.2184 32.6339 100.231 32.6339C102.205 32.6339 103.078 33.7369 103.078 35.981V47.5436H109.875V34.6117C109.875 29.5151 107.217 27.1189 103.382 27.1189C100.079 27.1189 97.9147 28.7924 96.8515 30.8463V27.6513H90.0551Z" fill="var(--fill-0, #E9EFEC)"/>
<path d="M128.354 40.6212C128.354 45.6418 131.202 48 135.037 48C138.34 48 140.277 46.5166 141.34 44.4628V47.5436H148.136V27.6513H141.34V39.0998C141.34 41.6482 140.011 42.8653 137.961 42.8653C136.024 42.8653 135.151 41.7623 135.151 39.5182V27.6513H128.354V40.6212Z" fill="var(--fill-0, #E9EFEC)"/>
<path d="M152.163 47.5436V27.6513H158.959V31.607C160.212 28.6403 162.301 27.3471 165.376 27.3851V33.7369C161.237 33.6228 158.959 34.916 158.959 38.1109V47.5436H152.163Z" fill="var(--fill-0, #E9EFEC)"/>
<path fill-rule="evenodd" clip-rule="evenodd" d="M167.155 37.8447C167.155 44.3487 171.711 48 177.938 48C183.937 48 187.392 45.4517 188 40.9636H181.621C181.355 42.2948 180.406 43.3217 178.166 43.3217C175.736 43.3217 174.217 41.8003 174.027 39.1759H188V37.3883C188 30.2377 183.33 27.1189 177.9 27.1189C171.901 27.1189 167.155 31.1506 167.155 37.5404V37.8447ZM181.393 35.3344H174.103C174.445 32.9382 175.85 31.607 177.9 31.607C180.102 31.607 181.279 32.9382 181.393 35.3344Z" fill="var(--fill-0, #E9EFEC)"/>
</g>
</svg>
