<svg preserveAspectRatio="none" width="100%" height="100%" overflow="visible" style="display: block;" viewBox="0 0 248 54" fill="none" xmlns="http://www.w3.org/2000/svg">
<g id="Desjardins">
<path fill-rule="evenodd" clip-rule="evenodd" d="M0 13.5104V40.4896L23.2325 54L46.465 40.4896V13.5104L23.2325 0L0 13.5104ZM40.0988 17.2216V36.9452L23.1912 46.7444L6.28353 36.7784V17.2216L23.1912 7.42239L40.0988 17.2216Z" fill="var(--fill-0, #E9EFEC)"/>
<path fill-rule="evenodd" clip-rule="evenodd" d="M72.2192 12.0093H62.0085V42.0324H72.3846C81.7685 42.0324 87.7627 36.1112 87.7627 27.0208C87.804 18.0973 81.4378 12.0093 72.2192 12.0093ZM72.0539 36.9869H68.2093V17.2633H72.3846C77.924 17.2633 81.7685 21.4749 81.7685 27.2293C81.7685 32.9421 77.7587 36.9869 72.0539 36.9869Z" fill="var(--fill-0, #E9EFEC)"/>
<path d="M203.181 17.9305C205.041 17.9305 206.364 16.3876 206.364 14.7197C206.364 13.01 204.876 11.5089 203.181 11.5089C201.321 11.5089 199.998 13.0517 199.998 14.7197C199.998 16.5961 201.528 17.9305 203.181 17.9305Z" fill="var(--fill-0, #E9EFEC)"/>
<path d="M200.535 21.4332H205.868V42.0324H200.535V21.4332Z" fill="var(--fill-0, #E9EFEC)"/>
<path d="M121.909 29.3977C119.552 28.5637 118.891 28.0633 118.891 27.0208C118.891 26.1869 119.552 25.5197 120.917 25.5197C122.942 25.5197 124.43 26.6872 125.753 27.8965L128.771 24.5189C126.745 22.3089 123.934 21.1413 120.917 21.1413C116.576 21.1413 113.558 23.6849 113.558 27.2293C113.558 31.2741 116.741 32.9838 119.759 33.9845C119.924 34.0679 120.09 34.1096 120.255 34.1513C120.42 34.193 120.586 34.2347 120.751 34.3181C122.405 34.8185 123.438 35.1521 123.438 36.1946C123.438 36.8618 123.108 37.6957 120.917 37.6957C118.891 37.6957 116.907 36.695 115.915 35.1521L112.731 38.5297C114.922 41.0733 117.568 42.2409 120.917 42.2409C125.753 42.2409 128.771 39.8641 128.771 35.9861C128.936 32.2332 126.249 31.0656 121.909 29.3977Z" fill="var(--fill-0, #E9EFEC)"/>
<path d="M238.113 27.0208C238.113 28.0633 238.774 28.5637 241.13 29.3977C245.512 31.0656 248.158 32.2332 247.993 35.9861C247.993 39.8641 244.975 42.2409 240.138 42.2409C236.79 42.2409 234.144 41.0733 231.953 38.5297L235.136 35.1521C236.128 36.695 238.113 37.6957 240.138 37.6957C242.329 37.6957 242.66 36.8618 242.66 36.1946C242.66 35.1521 241.627 34.8185 239.973 34.3181C239.808 34.2347 239.642 34.193 239.477 34.1513C239.312 34.1096 239.146 34.0679 238.981 33.9845C235.963 32.9838 232.78 31.2741 232.78 27.2293C232.78 23.6849 235.798 21.1413 240.138 21.1413C243.156 21.1413 245.967 22.3089 247.993 24.5189L244.975 27.8965C243.652 26.6872 242.164 25.5197 240.138 25.5197C238.774 25.5197 238.113 26.1869 238.113 27.0208Z" fill="var(--fill-0, #E9EFEC)"/>
<path d="M138.444 14.7197C138.444 16.3876 137.121 17.9305 135.261 17.9305C133.608 17.9305 132.078 16.5961 132.078 14.7197C132.078 12.8432 133.401 11.5089 135.261 11.5089C136.956 11.5089 138.444 13.01 138.444 14.7197Z" fill="var(--fill-0, #E9EFEC)"/>
<path d="M132.119 49.9552C135.633 49.9552 137.99 47.5784 137.99 42.6996V21.4332H132.615V42.5328C132.615 44.4093 131.789 45.41 130.59 45.41C129.928 45.41 129.432 45.2432 128.73 44.9096L127.903 49.4548C129.267 49.7884 130.259 49.9552 132.119 49.9552Z" fill="var(--fill-0, #E9EFEC)"/>
<path fill-rule="evenodd" clip-rule="evenodd" d="M149.647 21.1413C151.838 21.1413 153.698 21.6417 155.187 22.6425C157.212 23.9768 158.204 25.8533 158.204 28.3969V41.9073H153.202V40.0309H153.037C151.714 41.2401 150.226 42.2409 147.87 42.2409C144.025 42.2409 141.173 39.5305 141.173 35.8193C141.173 32.1081 144.356 29.2309 148.696 29.2309C150.813 29.2309 152.321 29.7646 152.924 29.9781C153.075 30.0315 153.169 30.0648 153.202 30.0648V28.7305C153.202 27.3544 152.5 26.3537 151.177 25.8533C150.639 25.6865 149.978 25.5197 149.316 25.5197C148.82 25.5197 148.49 25.5197 147.994 25.6865C146.795 26.0201 145.968 26.7289 145.141 27.8965C144.868 27.6211 144.032 26.7267 143.279 25.9225L143.279 25.922C142.665 25.2653 142.107 24.6688 141.958 24.5189C143.612 22.3089 146.299 21.1413 149.647 21.1413ZM148.49 37.9876C150.97 37.9876 153.161 36.278 153.161 35.2772V33.7343C153.161 33.7343 151.011 33.0672 148.986 33.0672C146.299 33.0672 145.803 34.7768 145.803 35.6108C145.803 36.9869 147.001 37.9876 148.49 37.9876Z" fill="var(--fill-0, #E9EFEC)"/>
<path d="M168.043 23.81L167.878 21.4332H162.545V42.0324H167.878V32.7336C167.878 29.0224 169.738 26.4788 174.244 26.4788V21.0996C171.557 21.0996 169.407 21.9753 168.043 23.81Z" fill="var(--fill-0, #E9EFEC)"/>
<path fill-rule="evenodd" clip-rule="evenodd" d="M191.152 40.1977H190.986C188.63 42.0324 186.646 42.366 185.488 42.4077C182.966 42.4077 180.486 41.407 178.626 39.5305C177.262 38.1961 175.608 35.6525 175.608 31.7745C175.608 26.5205 178.957 21.1413 185.488 21.1413C187.142 21.1413 189.663 21.8502 190.655 23.1846H190.821V12.051H196.154V42.0741H191.152V40.1977ZM180.61 31.7328C180.61 34.9436 182.925 37.4873 185.777 37.4873C188.63 37.4873 190.986 34.9436 190.945 31.7328C190.945 29.0224 188.961 25.9784 185.777 25.9784C182.966 25.9784 180.61 28.522 180.61 31.7328Z" fill="var(--fill-0, #E9EFEC)"/>
<path d="M215.748 23.1429H215.583V21.4749H210.25V42.0324H215.583V31.3992C215.583 26.6873 218.435 26.0201 220.254 26.0201C223.272 26.0201 224.429 28.5637 224.429 30.8988V42.0324H229.762V30.8988C229.762 24.8108 226.414 21.0996 221.081 21.0996C217.236 21.0996 215.748 23.1429 215.748 23.1429Z" fill="var(--fill-0, #E9EFEC)"/>
<path fill-rule="evenodd" clip-rule="evenodd" d="M100.66 21.0996C106.531 21.0996 110.706 25.478 110.706 31.566V33.4425H96.3198C96.9813 36.1529 98.9655 37.654 101.653 37.654C103.802 37.654 105.662 36.4448 106.655 35.2772C107.151 35.7777 109.507 38.1544 109.838 38.6548C107.853 41.0316 104.836 42.366 101.157 42.366C94.9557 42.366 90.6151 37.9876 90.6151 31.7328C90.6151 25.478 94.7903 21.0996 100.66 21.0996ZM100.826 25.6865C98.5108 25.6865 96.8159 27.0208 96.1545 29.5645H105.332C104.836 27.0208 103.141 25.6865 100.826 25.6865Z" fill="var(--fill-0, #E9EFEC)"/>
</g>
</svg>
