<svg width="32" height="32" viewBox="0 0 32 32" fill="none" xmlns="http://www.w3.org/2000/svg">
  <g transform="translate(2 2)">
    <path fill-rule="evenodd" clip-rule="evenodd" d="M14.001 6.81055C17.9713 6.81067 21.1895 10.0295 21.1895 14C21.1894 17.9704 17.9713 21.1893 14.001 21.1895C10.0304 21.1895 6.81153 17.9705 6.81152 14C6.81152 10.0295 10.0304 6.81055 14.001 6.81055ZM14.001 9.33301C11.4236 9.33301 9.33398 11.4226 9.33398 14C9.33399 16.5773 11.4236 18.667 14.001 18.667C16.5782 18.6669 18.667 16.5772 18.667 14C18.667 11.4227 16.5782 9.33313 14.001 9.33301Z" fill="var(--fill-0, #E9EFEC)"/>
    <path d="M21.4736 4.84668C22.4014 4.84668 23.1541 5.59869 23.1543 6.52637C23.1543 7.45424 22.4015 8.20703 21.4736 8.20703C20.546 8.20687 19.7939 7.45414 19.7939 6.52637C19.7941 5.59879 20.5461 4.84684 21.4736 4.84668Z" fill="var(--fill-0, #E9EFEC)"/>
    <path fill-rule="evenodd" clip-rule="evenodd" d="M14 0C17.8021 0 18.2792 0.0158796 19.7725 0.0839844C21.2625 0.15198 22.2805 0.389346 23.1709 0.735352C24.0913 1.09311 24.8722 1.57146 25.6504 2.34961C26.4285 3.12776 26.9069 3.90868 27.2646 4.8291C27.6107 5.71954 27.848 6.73754 27.916 8.22754C27.9841 9.7208 28 10.1978 28 14C28 17.8021 27.9841 18.2792 27.916 19.7725C27.848 21.2625 27.6107 22.2805 27.2646 23.1709C26.9069 24.0913 26.4285 24.8722 25.6504 25.6504C24.8722 26.4285 24.0913 26.9069 23.1709 27.2646C22.2805 27.6107 21.2625 27.848 19.7725 27.916C18.2792 27.9841 17.8021 28 14 28C10.1978 28 9.7208 27.9841 8.22754 27.916C6.73754 27.848 5.71958 27.6107 4.8291 27.2646C3.90867 26.9069 3.12782 26.4286 2.34961 25.6504C1.57146 24.8722 1.09311 24.0913 0.735352 23.1709C0.389262 22.2805 0.152063 21.2625 0.0839844 19.7725C0.0158796 18.2792 0 17.8021 0 14C1.11971e-07 10.1978 0.0158798 9.7208 0.0839844 8.22754C0.152063 6.73754 0.389262 5.71954 0.735352 4.8291C1.09307 3.90868 1.57142 3.12776 2.34961 2.34961C3.12777 1.57144 3.90867 1.09311 4.8291 0.735352C5.71958 0.389345 6.73754 0.151979 8.22754 0.0839844C9.7208 0.0158798 10.1978 1.12257e-07 14 0ZM14 2.52246C10.2619 2.52246 9.81903 2.53714 8.34277 2.60449C6.97789 2.66672 6.23648 2.89422 5.74316 3.08594C5.08972 3.33993 4.62369 3.64386 4.13379 4.13379C3.64393 4.62365 3.33993 5.08962 3.08594 5.74316C2.89421 6.23644 2.66676 6.97781 2.60449 8.34277C2.53714 9.81903 2.52246 10.2619 2.52246 14C2.52246 17.7381 2.53714 18.181 2.60449 19.6572C2.66676 21.0221 2.89422 21.7635 3.08594 22.2568C3.33993 22.9103 3.64388 23.3763 4.13379 23.8662C4.62365 24.3562 5.08962 24.6601 5.74316 24.9141C6.23644 25.1058 6.97781 25.3333 8.34277 25.3955C9.81886 25.4629 10.2616 25.4775 14 25.4775C17.7384 25.4775 18.1812 25.4629 19.6572 25.3955C21.0221 25.3333 21.7635 25.1058 22.2568 24.9141C22.9103 24.6601 23.3763 24.3562 23.8662 23.8662C24.3562 23.3763 24.6601 22.9104 24.9141 22.2568C25.1058 21.7636 25.3333 21.0222 25.3955 19.6572C25.4629 18.181 25.4775 17.7381 25.4775 14C25.4775 10.2619 25.4629 9.81903 25.3955 8.34277C25.3333 6.97789 25.1058 6.23648 24.9141 5.74316C24.6601 5.08972 24.3561 4.62369 23.8662 4.13379C23.3763 3.64388 22.9104 3.33993 22.2568 3.08594C21.7636 2.89421 21.0222 2.66672 19.6572 2.60449C18.5499 2.55397 18.024 2.53257 16.2529 2.52539L14 2.52246Z" fill="var(--fill-0, #E9EFEC)"/>
  </g>
</svg>
